<svg width="3125" height="1507" viewBox="0 0 3125 1507" fill="none" xmlns="http://www.w3.org/2000/svg">
<path d="M2467.19 1473.38L3112.91 654.236L2186.42 799.534L1466.11 7.33887L767.167 870.788L11.1977 831.371L609.641 1502.04L2467.19 1473.38V1473.38Z" fill="white"/>
<path d="M3098.82 662.506L2352.32 1475.17L2465.4 1475.37L3098.82 662.506Z" fill="#BCBEC0"/>
<path d="M1472.11 105.95L1507.63 906.036L1478.69 913.892L1436.59 906.415L1472.11 105.95Z" fill="#939598"/>
<path d="M2186.42 799.534L1522.86 898.731V849.115L2186.42 799.534V799.534ZM1436.83 900.936L1439.1 849.115L709.49 860.933L1436.83 900.936V900.936ZM2275.59 1362.09L683.305 1448.46L612.294 1496.01L2458.86 1467.86L2275.59 1362.09Z" fill="#BCBEC0"/>
<path d="M1491.51 909.447L2270.39 1453.94L2458.86 1467.86L1491.51 909.447V909.447Z" fill="#BCBEC0"/>
<path d="M764.962 865.895L1465.91 0L2188.25 794.401L3124.21 647.759L2471.12 1476.13L2469.54 1478.13H2466.99L609.882 1506.76H607.436L3.21469e-05 826.031L764.962 865.895ZM1477.76 29.0113L1466.36 16.4696L1465.8 17.1587L778.227 866.584L1436.76 901.04L1468.97 35.041L1478.66 105.95L1533.51 897.077L2175.54 796.399L1477.76 29.0113ZM1490.82 903.762L1522.86 898.731L1470.94 75.8016L1447.47 901.453L1490.82 903.762ZM3098.82 662.575L1503.19 912.754L2463.65 1467.48H2464.27L3098.82 662.575ZM2452 1467.79L1493.78 914.167L1491.92 914.443H1488.61L623.56 1495.84L2452 1467.79ZM612.294 1496.15H612.466L1478.69 913.891L769.889 876.921L767.512 879.815L763.55 876.611L25.1864 838.09L612.294 1496.15Z" fill="#31313B"/>
<path d="M837.42 852.905C841.762 865.24 857.06 869.065 868.43 869.065C882.659 869.995 896.82 873.647 910.981 874.371C922.868 874.957 934.204 877.817 946.159 878.919C958.115 880.022 971.828 878.678 984.404 878.919C1000.63 879.195 1016.62 881.469 1033.05 881.469C1040.6 881.469 1048.32 880.918 1055.83 881.469C1061.93 881.917 1069.16 881.262 1075.3 882.296C1080.62 883.633 1086.05 884.498 1091.52 884.88C1097 885.327 1102.44 886.203 1107.79 887.498C1118.98 889.083 1131.18 888.05 1142.52 888.256C1153.85 888.463 1165.26 890.668 1176.45 890.806C1191.75 891.013 1207.08 890.806 1222.42 890.806C1232.93 890.806 1243.37 891.323 1253.7 891.668C1266.59 892.116 1278.58 895.699 1291.12 895.94C1302.08 896.112 1312.65 897.628 1323.75 897.628C1334.84 897.628 1341.53 896.801 1350.35 889.083C1357.24 883.157 1364.47 880.642 1372.67 876.886C1385.35 871.615 1405.78 861.519 1396.07 845.877C1390.31 836.496 1384.06 827.432 1377.32 818.726C1365.59 803.531 1352.36 789.552 1337.84 777L1329.64 770.73C1325.16 767.284 1320.65 763.839 1315.86 760.703C1301.92 750.93 1287.15 742.399 1271.72 735.206C1269.92 734.336 1268.34 733.063 1267.1 731.485C1266.31 730.912 1265.61 730.214 1265.04 729.418C1265.13 729.159 1265.21 728.894 1265.28 728.625C1264.03 726.319 1263.64 723.646 1264.18 721.08C1264.31 720.487 1264.53 719.917 1264.83 719.391C1268.85 715.685 1273.22 712.385 1277.89 709.537C1278.51 709.055 1279.13 708.572 1279.71 708.055L1281.82 706.126C1282.54 705.506 1283.23 704.851 1283.92 704.196C1289.98 699.714 1295.69 694.76 1300.97 689.381L1302.66 687.52C1306.87 683.706 1310.87 679.669 1314.65 675.426C1315.24 674.703 1315.82 673.979 1316.37 673.221C1320.15 667.575 1324.26 662.156 1328.67 656.993C1329.26 656.2 1329.78 655.373 1330.29 654.546C1340.72 637.399 1348.94 619.004 1354.76 599.797C1355.41 597.661 1356.03 595.525 1356.79 593.457C1357.03 592.766 1357.31 592.087 1357.62 591.424C1363.44 585.222 1361.99 577.884 1364.51 570.2C1365.21 568.785 1366.09 567.465 1367.13 566.272C1367.63 565.716 1368.2 565.219 1368.81 564.79C1370.38 563.85 1372.13 563.239 1373.94 562.996C1375.75 562.754 1377.6 562.883 1379.36 563.378C1380.12 563.212 1380.87 562.993 1381.6 562.723C1384.89 561.429 1387.86 559.432 1390.29 556.874C1392.73 554.315 1394.59 551.255 1395.72 547.907C1395.89 547.33 1396.03 546.743 1396.14 546.15C1396.38 544.944 1396.59 543.704 1396.79 542.464C1397 541.223 1397.03 540.844 1397.14 539.983C1398.24 530.542 1398.38 521.273 1398.76 511.695V509.145C1398.73 503.261 1399.27 497.388 1400.38 491.607C1400.38 490.781 1400.38 489.954 1400.62 489.161C1401.63 481.719 1401.63 474.173 1400.62 466.731C1400.62 466.111 1400.38 465.525 1400.24 464.905C1400.1 464.284 1399.93 463.699 1399.75 463.113C1399.41 462.323 1398.98 461.572 1398.48 460.873C1397.97 460.143 1397.38 459.473 1396.72 458.875L1395.24 457.979C1392.73 456.498 1391.35 454.189 1388.35 453.293C1384.73 452.156 1380.7 451.571 1376.98 450.744C1375.41 450.575 1373.86 450.229 1372.36 449.71C1370.82 449.006 1369.53 447.838 1368.69 446.367C1367.84 444.897 1367.48 443.198 1367.64 441.51C1367.64 437.34 1365.61 434.343 1364.89 430.243C1363.89 424.695 1359.62 419.596 1357.62 414.29C1354.79 406.71 1351.67 399.256 1348.25 391.928L1346.18 387.553C1345.11 385.279 1343.97 383.039 1342.73 380.662C1342.15 379.525 1341.56 378.422 1340.94 377.216C1332.77 365.329 1326.02 352.856 1318.37 340.349L1316.06 336.903L1313.93 333.94C1305.56 324.672 1300.15 312.612 1292.15 302.724C1291.22 301.69 1290.29 300.691 1289.33 299.692C1285.47 295.695 1281.4 291.836 1277.2 288.115L1273.41 284.669C1272.13 283.567 1270.79 282.464 1269.45 281.43C1268.1 280.397 1266.76 279.363 1265.38 278.364C1254.22 271.473 1243.12 264.582 1230.93 258.483L1226.69 256.588C1215.2 251.909 1203.28 248.377 1191.1 246.045L1186.45 246.631C1179.94 246.984 1173.41 246.439 1167.05 245.011C1138 241.428 1108.64 241.324 1079.57 244.701C1076.85 245.287 1074.09 245.941 1071.33 246.596C1067.23 247.63 1063.13 248.732 1059.07 250.042C1031.5 258.759 1005.18 274.402 987.918 297.934L986.161 300.381C981.542 306.519 977.818 313.283 975.101 320.468C974.791 321.192 974.447 321.915 974.102 322.604C973.055 324.761 971.658 326.728 969.968 328.427C969.485 329.151 968.968 329.84 968.417 330.564C965.677 334.035 962.756 337.358 959.666 340.521L958.046 342.52L953.257 348.411L951.672 350.685C951.155 351.409 950.638 352.167 950.087 352.891C949.536 353.614 949.123 354.407 948.606 355.165C948.089 355.923 947.572 356.646 946.986 357.37L945.643 359.368C944.264 361.332 942.852 363.262 941.301 365.157C940.922 365.846 940.543 366.535 940.13 367.224C937.029 372.737 934.1 378.353 931.309 383.969C930.482 385.623 929.656 387.415 928.863 388.965C926.968 394.202 925.108 399.474 922.73 404.436L921.697 406.537C917.84 413.686 914.932 421.308 913.048 429.209V431.449C913.048 432.93 913.049 434.481 912.704 436.031C912.565 436.65 912.357 437.251 912.084 437.823C911.845 438.409 911.557 438.974 911.222 439.511C910.824 440.153 910.362 440.753 909.844 441.303C909.201 441.847 908.509 442.332 907.777 442.75C904.427 444.061 900.813 444.557 897.234 444.197H894.994C888.792 444.699 882.947 447.299 878.422 451.57C877.996 452.257 877.616 452.97 877.285 453.707C875.695 458.325 874.812 463.158 874.666 468.04V470.624C874.666 476.585 875.562 482.58 876.182 488.472C876.682 495.294 876.785 502.139 876.492 508.973V520.791C876.343 524.872 876.47 528.959 876.871 533.023C877.298 537.043 878.2 540.999 879.559 544.806C879.869 545.564 880.179 546.288 880.523 546.977C884.451 554.833 894.099 556.142 901.541 558.313C902.197 558.518 902.841 558.76 903.47 559.036C905.897 560.254 908.204 561.696 910.361 563.343C911.05 563.929 911.674 564.588 912.222 565.307C914.016 567.679 914.995 570.568 915.012 573.542C915.219 574.369 915.391 575.162 915.564 575.988C915.874 577.642 916.184 579.434 916.494 580.812L917.114 583.155C917.321 583.913 917.493 584.706 917.665 585.498L918.286 587.807C918.492 588.565 918.665 589.323 918.837 590.115C919.009 590.908 919.319 591.631 919.595 592.355C920.798 596.162 922.319 599.862 924.143 603.415C924.591 604.242 925.039 605.069 925.452 605.896C928.553 611.615 931.689 617.369 934.686 623.123C938.545 630.497 941.956 638.008 945.608 645.45C951.844 658.13 961.699 670.12 966.591 683.351C967.005 684.419 967.315 685.453 967.625 686.486L968.555 687.692C971.139 691.138 973.826 694.273 976.583 697.443C978.374 699.338 980.235 701.199 982.13 702.991C982.802 703.467 983.416 704.022 983.956 704.644L985.92 706.402L989.366 709.261C989.572 710.64 989.848 711.983 989.986 713.362C990.124 714.74 989.986 715.739 990.158 716.807C989.803 716.772 989.445 716.772 989.09 716.807C988.626 716.8 988.174 716.949 987.805 717.23C987.436 717.512 987.173 717.909 987.057 718.358C987.073 718.61 987.073 718.863 987.057 719.116C986.791 719.384 986.435 719.544 986.058 719.564C985.749 720.077 985.379 720.552 984.955 720.976C927.244 725.559 892.824 768.903 860.919 816.073C855.819 823.722 848.17 827.546 841.969 834.265C839.267 836.441 837.358 839.445 836.536 842.815C835.714 846.184 836.025 849.73 837.42 852.905V852.905Z" fill="white"/>
<path d="M915.667 490.746V480.134C915.667 476.585 915.667 473.243 915.391 469.797C915.116 466.352 915.943 463.079 916.356 459.909C918.437 449.163 921.505 438.633 925.521 428.451C926.865 425.006 928.346 421.56 930 418.321C931.654 415.083 933.893 411.051 935.857 407.399C937.821 403.747 939.51 400.921 941.37 397.683C941.749 397.028 942.128 396.373 942.473 395.719C946.777 387.994 951.564 380.548 956.806 373.426L958.598 371.083C971.804 353.657 988.623 339.294 1007.9 328.979C1010.9 327.428 1013.97 325.981 1017 324.672C1047.71 312.302 1080.38 305.5 1113.47 304.584H1123.39C1126.7 304.584 1130.04 304.826 1133.35 305.067C1136.66 305.308 1139.35 305.067 1142.34 305.067C1166.45 304.946 1190.41 308.764 1213.29 316.368C1216.73 317.436 1219.97 318.608 1223.28 319.814C1239.62 326.234 1255.43 333.942 1270.55 342.864C1274.24 345.276 1277.89 347.757 1281.44 350.376C1295.81 360.715 1308.99 372.63 1320.72 385.899C1323.2 388.828 1325.57 391.825 1327.88 394.857C1331.95 400.14 1335.8 405.55 1339.42 411.086L1340.98 413.498C1344.65 419.055 1347.9 424.883 1350.69 430.932C1351.14 431.897 1351.55 432.861 1351.97 433.826C1366.44 467.73 1363.41 505.734 1359.37 541.74C1358.93 545.427 1358.48 549.113 1358 552.835C1357.51 556.556 1357.07 560.277 1356.58 564.033C1356.17 572.155 1354.49 580.163 1351.62 587.772C1350.31 591.597 1348.8 595.318 1347.18 599.005C1345.56 602.691 1343.73 606.344 1342.15 609.927C1340.8 612.752 1339.46 615.543 1338.05 618.3C1335.18 623.812 1332.11 629.165 1328.85 634.356L1323.58 641.867C1314.79 654.271 1305.66 666.261 1292.91 675.22C1289.47 677.838 1285.74 680.388 1282.06 682.834C1271 690.208 1259.46 696.892 1248.12 703.232C1243.37 704.92 1238.58 706.333 1233.86 708.228C1224.99 712.007 1215.75 714.826 1206.29 716.635C1195.52 718.703 1184.6 719.924 1173.63 720.287C1169.94 720.287 1166.26 720.528 1162.5 720.563C1141.13 721.648 1119.71 721.164 1098.41 719.116C1094.17 718.608 1089.95 717.999 1085.74 717.29C1069.51 714.354 1053.67 709.58 1038.53 703.06C1034.78 701.44 1031.02 699.614 1027.33 697.891C991.881 682.834 966.591 651.997 948.812 618.816C946.917 615.164 945.022 611.477 943.196 607.756C926.589 574.369 913.186 539.328 915.357 501.427C915.426 497.844 915.667 494.295 915.667 490.746ZM1314.72 379.697C1311.28 376.562 1307.83 373.908 1304.38 371.118C1307.54 374.31 1311 377.183 1314.72 379.697Z" fill="#31313B"/>
<path d="M851.099 825.652C851.409 824.997 851.788 824.342 852.132 823.688C858.297 813.776 865.306 804.415 873.081 795.71C874.011 794.573 874.976 793.436 875.906 792.264C878.697 788.819 881.385 785.373 883.831 781.721L885.967 779.275C886.656 778.448 887.38 777.655 888.034 776.828L891.032 773.383C893.946 770.066 896.585 766.517 898.922 762.771C899.749 761.76 900.576 760.795 901.403 759.876C904.713 755.935 908.244 752.185 911.98 748.644C915.35 745.418 918.993 742.49 922.868 739.892C931.93 733.897 942.748 731.141 953.119 728.281C954.428 727.936 955.703 727.626 957.012 727.351L960.94 726.489L966.177 724.904C968.279 724.25 970.381 723.595 972.483 723.078C973.275 722.871 974.033 722.665 974.791 722.527C977.823 721.562 982.233 722.01 985.541 720.976C986.222 720.782 986.871 720.492 987.47 720.115C988.454 719.473 989.203 718.53 989.607 717.428V716.876C989.901 715.917 990.041 714.916 990.02 713.913C990.054 713.466 990.054 713.017 990.02 712.569C989.429 710.515 988.228 708.688 986.575 707.332C985.851 706.643 985.093 705.988 984.3 705.299C982.494 703.921 980.831 702.362 979.339 700.648L977.961 699.235L976.617 697.823C973.861 694.653 971.173 691.414 968.589 688.072L967.659 686.866C965.351 683.937 963.145 680.974 960.975 677.942C946.136 657.112 934.036 634.461 924.97 610.547C923.488 606.516 922.11 602.45 920.766 598.419L919.939 595.938C919.733 595.353 919.526 594.732 919.354 594.112C919.181 593.492 918.94 592.906 918.768 592.286C916.701 585.843 914.874 578.883 913.048 571.992C912.842 571.165 912.601 570.304 912.325 569.477C911.798 567.808 911.045 566.22 910.085 564.756C909.65 564.328 909.189 563.925 908.707 563.55C906.737 562.057 904.538 560.893 902.195 560.105C899.714 559.347 897.234 558.727 894.787 558.003C890.257 556.984 886.125 554.66 882.9 551.319C881.912 550.112 881.068 548.793 880.385 547.391C880.041 546.702 879.731 545.944 879.421 545.22L879.111 544.324L878.904 543.773C878.904 543.497 878.731 543.222 878.628 542.912C878.525 542.602 878.628 542.257 878.352 541.947V541.568C878.352 541.258 878.352 540.913 878.111 540.569C877.87 540.224 877.732 538.949 877.56 538.157L877.353 536.951V536.158V535.194C877.353 534.884 877.353 534.022 877.112 533.436C876.71 529.372 876.583 525.286 876.733 521.205V509.387C877.026 502.553 876.923 495.708 876.423 488.886C876.423 487.163 876.044 485.44 875.872 483.683L875.562 480.651V478.859V478.48C875.562 476.413 875.32 474.346 875.148 472.313C874.441 466.96 874.769 461.521 876.113 456.291C876.614 454.739 877.334 453.265 878.249 451.915C878.703 451.233 879.21 450.588 879.765 449.986C880.454 449.4 881.178 448.849 881.867 448.332C882.583 447.784 883.331 447.277 884.107 446.816C890.343 441.923 898.44 442.406 905.951 439.925C906.461 439.68 906.937 439.367 907.363 438.995C908.793 438.03 909.889 436.645 910.499 435.032C910.804 434.219 911.068 433.391 911.291 432.551C912.945 425.97 916.494 420.216 918.664 413.98C919.009 413.256 919.319 412.533 919.629 411.775C922.799 404.229 926.279 396.752 929.966 389.379C930.758 387.691 931.585 385.933 932.412 384.383L933.997 381.213L934.824 379.628C935.444 378.388 936.064 377.182 936.719 375.976L937.546 374.425L938.476 372.634L940.13 369.636L941.232 367.638L942.404 365.57C943.61 363.469 944.816 361.401 946.09 359.334L947.572 356.888C948.054 356.095 948.571 355.303 949.088 354.51C949.605 353.718 950.087 352.925 950.604 352.133L952.051 350.1L953.533 348.102C957.805 343.622 960.975 337.765 965.178 333.182C965.695 332.562 966.212 331.977 966.763 331.391C967.831 330.254 968.968 329.117 970.209 327.945L971.931 326.36C973.492 322.091 975.417 317.964 977.685 314.025C980.512 309.439 983.571 305 986.85 300.726L987.333 299.761L988.504 298.141L989.331 297.039C989.848 296.315 990.399 295.626 990.95 294.903L992.742 292.732C993.293 292.043 993.879 291.354 994.465 290.699L995.223 289.872C995.877 289.114 996.532 288.391 997.221 287.667L998.151 286.702C998.455 286.364 998.777 286.042 999.116 285.738C999.386 285.434 999.674 285.146 999.977 284.876C1000.32 284.497 1000.67 284.153 1001.05 283.808L1001.94 282.981L1003.01 281.947L1003.87 281.155L1005.01 280.121L1006.04 279.226L1006.59 278.778L1007.49 278.02C1009.69 276.159 1011.97 274.367 1014.38 272.679L1015.52 271.852L1017.83 270.267L1018.96 269.475L1020.68 268.338L1022.37 267.27L1024.54 265.96L1024.89 265.753L1026.85 264.582L1027.23 264.375L1029.3 263.204L1029.68 262.997L1031.68 261.929L1032.19 261.653L1034.19 260.62L1034.71 260.378L1036.5 259.483L1037.26 259.138L1039.12 258.242L1041.22 257.277L1042.39 256.795L1044.22 256.003L1046.73 254.969L1048.94 254.108C1050.69 253.419 1052.38 252.764 1054.24 252.144L1054.83 251.937L1056.9 251.248C1057.75 250.926 1058.61 250.651 1059.48 250.421C1063.55 249.181 1067.65 248.078 1071.75 246.975L1079.98 245.08C1085.46 243.874 1090.9 242.806 1096.28 241.842C1100.38 241.325 1104.48 241.015 1108.61 240.773C1112.75 240.532 1116.88 240.36 1121.02 240.257C1125.74 240.257 1130.42 240.05 1135.07 239.981C1154 240.924 1172.86 243.076 1191.51 246.424L1193.78 246.906C1196.13 247.389 1198.47 247.906 1200.68 248.457L1202.78 249.008C1204.12 249.318 1205.43 249.697 1206.77 250.042L1208.39 250.49L1210.05 250.972L1213.49 251.971L1215.04 252.488H1215.32L1216.8 253.005C1217.9 253.35 1218.97 253.729 1220.07 254.142L1223.52 255.348L1226.59 256.588H1226.79L1228.17 257.174H1228.52L1229.93 257.794L1231.51 258.518C1235.77 260.565 1239.92 262.83 1243.95 265.306C1247.4 267.097 1250.84 268.992 1254.29 270.956L1254.67 271.163C1261.43 274.818 1267.89 279 1274 283.67C1277.68 286.53 1281.27 289.528 1284.71 292.697L1285.23 293.18C1288.36 296.04 1291.39 299.072 1294.32 302.173L1300.8 310.097L1302.14 311.682C1308.14 318.107 1313.33 325.233 1317.61 332.907C1318.03 333.63 1318.44 334.354 1318.82 335.112C1319.2 335.87 1319.54 336.594 1319.92 337.352C1320.3 338.11 1320.58 338.764 1320.89 339.488C1321.2 340.211 1321.51 340.9 1321.78 341.624L1323.09 344.139C1323.54 344.932 1324.02 345.759 1324.54 346.551L1325.78 348.791L1329.4 355.682C1329.81 356.44 1330.19 357.198 1330.57 357.956C1331.36 359.472 1332.12 361.022 1332.84 362.573L1334.15 364.778C1335.52 366.993 1337.1 369.07 1338.87 370.98L1340.63 373.357C1349.46 385.261 1356.19 398.594 1360.51 412.774C1361.68 415.668 1362.85 418.597 1363.96 421.56C1365.06 424.523 1365.92 427.521 1366.71 430.587C1367.23 432.62 1367.68 434.619 1368.13 436.686L1368.54 438.719C1369.06 440.2 1368.88 441.751 1369.26 443.233C1370.23 447.092 1372.47 447.781 1375.95 448.711C1380.24 449.685 1384.46 450.939 1388.59 452.467L1390.76 453.466C1394.41 455.128 1397.57 457.703 1399.93 460.943C1400.17 461.528 1400.41 462.114 1400.62 462.734C1401.35 465.062 1401.81 467.467 1401.99 469.901V470.866C1402.13 473.391 1402.13 475.921 1401.99 478.446V480.685C1401.99 481.409 1401.99 482.201 1401.82 482.959C1401.51 486.646 1401.13 490.23 1400.82 493.813V495.949C1400.82 498.602 1400.65 501.186 1400.48 503.805C1400.48 504.666 1400.48 505.528 1400.31 506.389C1400.13 507.25 1400.31 508.215 1400.13 509.145L1399.93 511.902C1399.65 520.171 1398.76 528.234 1398.89 536.021V537.743C1398.72 539.432 1398.51 541.189 1398.17 542.808C1398.17 543.463 1397.89 544.152 1397.72 544.841C1396.97 549.035 1395.43 553.046 1393.17 556.659C1392.76 557.274 1392.32 557.861 1391.83 558.417C1389.69 560.685 1387.03 562.4 1384.08 563.413L1381.91 564.136C1377.5 565.618 1371.33 565.549 1368.95 568.581C1365.82 573.163 1366.09 579.365 1364.2 584.671C1363.96 585.464 1363.72 586.256 1363.44 587.014L1362.61 589.357L1362.1 591.115C1361.89 591.666 1361.68 592.252 1361.44 592.837C1361.2 593.423 1360.86 594.388 1360.55 595.146C1360.24 595.904 1360.03 596.49 1359.79 597.144C1357.65 604.724 1353.69 611.994 1351.17 619.643C1350.86 620.505 1350.52 621.297 1350.21 622.124C1349.21 624.571 1348.14 627.017 1347.04 629.429C1346.69 630.221 1346.32 631.014 1345.94 631.806C1345.56 632.599 1345.18 633.426 1344.77 634.218C1341.7 640.386 1337.87 646.105 1334.12 652.169C1333.6 652.927 1333.09 653.685 1332.6 654.443L1331.02 656.683C1329.98 658.13 1328.92 659.543 1327.85 660.921L1324.92 664.608C1322.96 667.088 1321.03 669.604 1319.17 672.188C1318.68 672.877 1318.2 673.532 1317.68 674.186C1314.84 678.228 1311.67 682.031 1308.21 685.556C1307.59 686.28 1306.97 686.969 1306.31 687.658C1302.49 691.827 1298.32 695.652 1294.22 699.58C1290.77 703.025 1286.95 706.471 1283.13 709.572L1281.85 710.605C1276.96 715.464 1269.21 717.29 1266.42 723.733C1266.31 724.082 1266.24 724.439 1266.21 724.801C1266.19 725.007 1266.19 725.215 1266.21 725.421C1266.13 726.388 1266.3 727.359 1266.69 728.246C1267.05 729.053 1267.54 729.798 1268.14 730.452L1269.24 731.382C1270.31 732.137 1271.47 732.762 1272.69 733.243L1273.93 733.759C1275.85 734.202 1277.73 734.825 1279.54 735.62L1280.89 736.206C1285.3 737.584 1289.91 739.203 1294.25 740.754L1295.56 741.236C1299.41 742.807 1303.15 744.626 1306.76 746.68C1309.62 748.231 1312.41 749.953 1315.13 751.779C1317.86 753.606 1319.82 755.018 1322.03 756.741C1331.86 764.548 1341.14 773.033 1349.8 782.135L1366.23 798.57L1369.47 801.843C1371.03 804.164 1372.88 806.272 1374.98 808.114C1379.46 812.972 1387.11 818.037 1387.94 825.341C1388.09 826.404 1388.09 827.483 1387.94 828.546V829.131L1387.45 828.856C1386.49 828.236 1385.56 827.581 1384.63 826.857C1383.7 826.134 1383.18 825.686 1382.46 825.066C1378.6 821.62 1375.26 817.761 1371.5 814.109C1369.81 812.352 1368.06 810.663 1366.26 809.113C1365.27 808.252 1364.34 807.356 1363.37 806.494C1360.65 803.876 1357.96 801.154 1355.27 798.432C1346.42 789.439 1337.67 780.377 1328.23 771.97C1319.3 763.794 1309.32 756.842 1298.56 751.297C1298.46 751.219 1298.34 751.161 1298.22 751.125C1292.88 748.4 1287.28 746.207 1281.51 744.578C1276.09 742.881 1270.53 741.659 1264.9 740.926C1263.28 740.651 1261.63 740.651 1260.01 740.926C1258.7 742.95 1257.28 744.905 1255.77 746.783C1255.15 747.541 1254.56 748.265 1253.91 748.954C1248.28 755.127 1241.58 760.228 1234.13 764.011C1225.41 768.037 1216.22 770.965 1206.77 772.728C1197.33 774.899 1187.76 776.622 1178.28 778.586C1176.83 778.896 1176.21 776.691 1177.66 776.346C1186.62 774.244 1195.54 772.039 1204.29 769.145C1213.07 766.092 1221.58 762.3 1229.72 757.809C1231.24 756.982 1232.75 756.121 1234.23 755.225C1235.72 754.329 1237.13 753.364 1238.54 752.4C1240.3 751.202 1241.99 749.914 1243.61 748.541C1245.93 746.571 1248.06 744.391 1249.98 742.029C1250.97 740.864 1251.89 739.645 1252.74 738.376C1255.06 735.167 1257 731.698 1258.53 728.04C1258.94 726.903 1258.84 725.525 1257.25 725.697C1255.67 725.869 1255.08 726.972 1254.15 727.488L1250.46 729.625L1246.84 731.761C1241.32 735.198 1235.38 737.919 1229.17 739.858C1227.69 740.444 1226.14 740.96 1224.62 741.477C1221.56 742.511 1218.45 743.441 1215.35 744.268C1212.25 745.095 1209.08 745.75 1205.95 746.37L1203.57 746.783L1202.02 747.094C1196.21 748.266 1190.3 748.808 1184.38 748.713H1181.86L1179.35 748.954L1176.32 749.161C1151.1 751.123 1125.8 751.813 1100.52 751.228C1086.2 750.718 1071.98 748.674 1058.1 745.13L1055.59 744.44C1048.46 742.546 1041.53 739.949 1034.91 736.688C1032.67 735.517 1030.47 734.311 1028.23 733.243L1026.03 732.037C1023.69 730.379 1021.21 728.937 1018.62 727.73C1014.49 725.93 1010.46 723.906 1006.56 721.666L1005.46 721.045L1004.46 720.494C1002.42 719.254 1000.46 717.91 998.565 716.497L997.014 715.326C995.257 715.567 997.566 716.773 996.739 717.255V720.081C996.757 720.229 996.757 720.38 996.739 720.529V722.94L997.979 726.076C999.977 731.857 1002.83 737.305 1006.45 742.235C1007.43 743.438 1008.46 744.588 1009.56 745.681C1014.1 750.253 1019.31 754.1 1025.03 757.086C1029.33 759.107 1033.79 760.789 1038.36 762.116C1043.9 763.994 1049.54 765.592 1055.24 766.905C1059.62 767.939 1064.06 768.8 1068.54 769.455C1071.23 769.834 1075.43 769.455 1077.53 771.385C1074.68 773.176 1070.64 772.453 1067.2 772.384C1061.75 772.089 1056.34 771.305 1051.04 770.041C1045.29 768.835 1039.63 767.181 1033.81 765.975C1029.01 764.974 1024.29 763.627 1019.69 761.944C1011.67 758.498 1004.75 752.936 999.667 745.853L999.392 745.543C995.259 740.398 992.328 734.394 990.812 727.971C989.693 728.348 988.539 728.613 987.367 728.763C987.28 728.847 987.173 728.906 987.057 728.936C985.575 729.211 984.094 729.452 982.578 729.659C981.062 729.866 979.546 730.004 978.03 730.142C973.952 730.236 969.881 730.535 965.833 731.037L962.766 732.002C960.217 732.691 957.633 733.484 955.083 734.242C944.795 736.657 934.948 740.668 925.9 746.129C924.97 746.749 924.039 747.438 923.143 748.093C917.863 752.345 912.984 757.074 908.569 762.219L905.434 765.665C902.336 769.039 899.469 772.619 896.855 776.38L894.098 780.136L892.031 782.755L889.895 785.339C887.612 787.267 885.523 789.413 883.659 791.747C882.553 792.829 881.517 793.98 880.558 795.193C879.558 796.399 878.628 797.639 877.698 798.949C871.22 805.84 867.086 816.693 860.47 823.515C859.51 824.482 858.473 825.369 857.37 826.168C855.108 827.915 852.462 829.096 849.652 829.614C849.859 828.132 850.444 826.926 851.099 825.652V825.652ZM878.663 473.209C878.663 475.161 878.8 477.125 879.076 479.1C879.731 486.922 880.661 494.64 880.627 502.565C880.592 510.489 880.627 518.965 881.316 527.2C881.626 531.341 882.306 535.446 883.348 539.466C883.843 542.166 884.913 544.727 886.484 546.977C890.515 551.767 896.82 552.421 902.505 553.868C904.538 554.42 907.26 556.59 908.5 554.42C909.258 553.076 908.121 550.354 907.742 548.976C906.627 544.237 905.856 539.424 905.434 534.573C904.4 524.237 903.746 513.521 903.47 503.047C903.165 489.612 903.844 476.173 905.503 462.838C905.664 461.322 905.836 459.84 906.02 458.393C906.295 456.567 906.433 454.741 906.64 452.949C907.021 451.46 907.251 449.936 907.329 448.401C907.276 447.861 907.112 447.338 906.845 446.866C906.579 446.393 906.217 445.981 905.782 445.657C905.348 445.333 904.85 445.103 904.321 444.982C903.793 444.861 903.244 444.852 902.712 444.955C901.885 444.955 901.024 445.162 900.197 445.3C898.715 445.541 897.234 445.817 895.786 446.196L893.65 446.816C891.131 447.592 888.704 448.644 886.415 449.951C885.691 450.399 884.933 450.882 884.244 451.398C882.875 452.415 881.707 453.677 880.799 455.12C876.905 460.495 877.974 467.076 878.49 473.209H878.663ZM1142.38 246.665L1132.04 246.011H1119.09C1114.75 246.011 1110.4 246.286 1106.06 246.562C1097 247.664 1087.73 249.077 1078.5 251.007C1073.92 251.971 1069.33 253.074 1064.72 254.452C1033.33 262.101 1006.76 282.74 988.022 308.823C986.402 311.131 984.852 313.508 983.336 315.714C999.597 302.441 1018.24 292.385 1038.26 286.082C1042.53 284.773 1046.9 283.601 1051.38 282.637C1055.07 281.568 1058.76 280.604 1062.48 279.742C1066.2 278.881 1070.02 278.192 1073.85 277.606C1089.44 275.488 1105.19 274.693 1120.91 275.229C1148.48 275.814 1176.04 277.296 1203.02 283.429C1224.13 288.183 1244.52 295.714 1263.66 305.825C1267.45 307.858 1271.2 309.994 1274.93 312.268C1289.19 320.644 1302.25 330.913 1313.76 342.795L1315.72 344.932C1316.54 345.952 1317.48 346.876 1318.51 347.688C1318.51 346.344 1316.93 344.897 1316.34 343.657C1315.59 342.152 1314.71 340.711 1313.72 339.35C1311.37 335.662 1309.21 331.855 1307.24 327.945C1306.06 326.127 1304.69 324.441 1303.14 322.915C1301.46 321.054 1300.15 319.021 1298.63 317.057C1297.11 315.093 1294.81 313.095 1293.15 310.855C1291.02 307.984 1288.81 305.193 1286.54 302.483C1283.5 299.451 1280.34 296.625 1277.1 293.938C1270.59 288.565 1263.68 283.704 1256.42 279.398C1252.74 277.227 1249.02 275.125 1245.26 273.058C1213.87 255.176 1178.25 247.32 1142.38 246.665ZM1372.36 472.795C1372.42 475.714 1372.68 478.626 1373.12 481.512V488.61C1373.12 492.056 1373.12 495.501 1373.33 498.947C1373.72 512.424 1373.25 525.912 1371.92 539.328C1371.4 544.703 1370.74 550.078 1369.95 555.419C1369.95 556.177 1369.71 556.935 1369.61 557.693C1369.44 557.972 1369.34 558.287 1369.32 558.611C1369.3 558.935 1369.36 559.259 1369.48 559.558C1369.61 559.857 1369.81 560.121 1370.06 560.33C1370.31 560.538 1370.6 560.686 1370.92 560.759C1372.68 560.59 1374.42 560.267 1376.12 559.795L1379.12 558.933C1382.55 558.208 1385.69 556.482 1388.14 553.972C1389.82 551.785 1391 549.256 1391.59 546.564C1392 545.22 1392.35 543.876 1392.66 542.533C1392.66 541.878 1392.93 541.189 1393.04 540.5C1393.48 538.605 1393.83 536.641 1394.1 534.642C1394.1 533.988 1394.1 533.333 1394.35 532.678C1395.03 526.373 1395.14 519.827 1395.55 513.59V511.247V508.663C1395.55 504.425 1395.96 500.256 1396.48 495.949C1396.48 495.088 1396.72 494.192 1396.83 493.33C1397.19 490.76 1397.42 488.173 1397.52 485.578C1397.52 484.751 1397.69 483.89 1397.79 483.028L1398 480.444C1398.27 478.757 1398.42 477.053 1398.45 475.345C1398.5 474.484 1398.5 473.621 1398.45 472.761C1398.51 469.023 1397.29 465.376 1395 462.424C1394.44 461.695 1393.83 461.005 1393.17 460.357C1387.97 455.326 1379.56 449.814 1372.95 452.811C1369.06 454.672 1371.67 461.666 1372.09 466.421C1372.09 467.179 1372.29 467.937 1372.33 468.695C1372.36 469.453 1372.33 470.211 1372.5 471.003C1372.49 471.603 1372.45 472.201 1372.36 472.795ZM997.29 706.333C1000.15 707.89 1002.9 709.664 1005.49 711.639L1011.45 715.946L1013.48 717.324C1017.17 720.081 1021.65 722.32 1025.78 724.801L1026.99 725.559L1028.64 726.489L1029.26 726.834L1031.57 728.143C1044.47 735.172 1058.44 740.037 1072.92 742.545C1079.69 743.767 1086.52 744.629 1093.38 745.13C1107.36 745.997 1121.36 746.124 1135.35 745.509C1145.1 745.198 1154.89 744.751 1164.6 744.544H1174.7L1177.14 744.337H1179.62C1188.59 744.62 1197.56 743.575 1206.22 741.236L1208.53 740.685C1213.84 739.376 1219.14 738.032 1224.38 736.412L1229.03 734.862C1235.17 732.696 1241.14 730.105 1246.91 727.109L1250.95 724.353C1252.71 723.168 1254.57 722.12 1256.49 721.218L1258.39 720.287C1265.95 716.667 1273.06 712.168 1279.58 706.884C1280.27 706.333 1280.99 705.747 1281.68 705.127C1283.75 703.37 1285.78 701.682 1287.78 699.683C1289.26 698.339 1290.71 696.961 1292.12 695.583L1303.28 684.798C1303.8 684.316 1304.32 683.765 1304.8 683.213C1305.28 682.662 1305.76 682.111 1306.21 681.56C1309.9 677.184 1313.1 672.222 1316.55 667.536C1317.03 666.847 1317.51 666.193 1318.03 665.538C1318.92 664.366 1319.82 663.161 1320.68 662.092C1322.44 659.37 1324.4 656.752 1326.33 654.133L1327.81 652.169C1333.05 645.67 1337.32 638.453 1340.49 630.738C1340.84 630.049 1341.15 629.36 1341.49 628.705C1343.46 624.605 1345.21 620.436 1346.83 616.232C1347.11 615.406 1347.42 614.613 1347.73 613.786C1350.48 607.412 1351.38 600.004 1354.89 593.492C1355.58 591.769 1356.24 590.046 1356.82 588.289C1357.75 585.671 1358.62 583.052 1359.37 580.433C1359.65 579.538 1359.89 578.676 1360.13 577.815C1361.5 572.59 1362.55 567.285 1363.27 561.931L1363.58 559.898C1363.58 559.209 1363.75 558.554 1363.85 557.865L1364.27 555.178C1365.06 549.837 1365.75 544.428 1366.26 539.053C1367.61 525.925 1368.3 512.763 1368.64 499.567V485.785V483.028V480.996V478.928V476.413C1368.19 469.866 1366.75 463.285 1366.16 456.567C1366.16 455.671 1365.89 454.775 1365.78 453.879C1364.78 446.988 1363.61 440.097 1361.96 433.206C1361.23 430.174 1360.34 427.211 1359.37 424.317C1358.41 421.422 1357.27 418.528 1356.14 415.668C1351.33 400.793 1344.69 386.57 1336.39 373.323C1335.84 372.496 1335.32 371.669 1334.77 370.876C1332.46 367.948 1330.26 364.606 1327.68 361.711C1327.16 361.126 1326.61 360.574 1326.06 360.058C1325.03 358.985 1323.87 358.047 1322.61 357.267L1320.82 355.992C1320.1 355.337 1319.44 354.614 1318.75 353.993L1316.48 352.133C1301.56 339.729 1287.78 327.325 1271.82 317.609C1268.14 315.335 1264.38 313.198 1260.56 311.166C1241.46 301.277 1221.14 293.966 1200.12 289.424C1173.08 283.36 1145 281.844 1117.43 281.431C1101.6 280.992 1085.76 282.041 1070.13 284.566C1066.41 285.221 1062.68 286.013 1059.03 286.943C1055.38 287.874 1051.76 288.942 1048.11 290.079C1020.55 295.04 997.91 311.82 975.756 328.634L973.309 330.495L971.828 331.77L970.346 333.045C964.073 338.978 958.678 345.777 954.325 353.235L952.981 355.234L951.569 357.232L950.122 359.61C944.953 368.43 940.026 377.354 935.444 386.554C931.516 394.478 927.519 402.541 924.35 410.672L923.316 413.463C919.491 421.732 918.182 431.001 915.77 439.787L915.253 441.923C915.047 442.647 914.874 443.336 914.702 444.059C913.221 450.193 911.946 456.429 910.878 462.665C908.943 475.721 908.228 488.928 908.741 502.117C908.741 512.246 909.706 522.411 910.464 532.506C910.737 537.131 911.301 541.734 912.152 546.288L912.566 548.011C912.941 550.029 913.447 552.02 914.082 553.972C914.254 554.626 914.495 555.247 914.702 555.901C915.529 558.416 916.218 560.966 916.907 563.516C917.114 564.377 917.321 565.239 917.562 566.066C919.629 575.196 923.729 584.12 926.382 593.423L927.002 595.284L928.312 599.005C938.638 628.749 953.629 656.662 972.724 681.697C974.998 684.867 977.341 688.003 979.615 691.104C984.859 696.754 990.744 701.772 997.152 706.057L997.29 706.333Z" fill="#31313B"/>
<path d="M1002.98 823.997C1004.53 823.205 1005.87 822.206 1007.28 821.344C1008.69 820.393 1010.23 819.672 1011.86 819.208C1013.2 818.703 1014.54 818.255 1015.9 817.864C1028.16 814.419 1041.67 817.072 1054 818.278C1061.75 819.07 1069.51 818.967 1077.26 819.587C1085.87 820.276 1094.49 821.413 1103.03 822.481C1119.36 824.606 1135.78 825.905 1152.23 826.375C1157.5 826.375 1162.84 826.788 1168.08 826.375C1173.04 825.758 1177.93 824.685 1182.69 823.171C1187.52 821.697 1192.45 820.546 1197.44 819.725C1202.27 819.139 1207.14 818.897 1212.01 819.001C1219.88 818.929 1227.65 820.687 1234.72 824.135C1235.8 824.685 1236.84 825.294 1237.85 825.961C1238.91 826.646 1239.92 827.394 1240.88 828.201C1241.71 828.959 1242.61 829.786 1243.43 830.682C1244.56 831.87 1245.55 833.189 1246.36 834.61C1247.12 836.014 1247.73 837.491 1248.19 839.02C1251.32 853.829 1250.97 869.163 1247.16 883.812C1246.2 880.639 1245.46 877.404 1244.95 874.13C1244.74 863.793 1245.26 852.905 1241.99 843.12C1241.45 841.696 1240.78 840.323 1239.99 839.02C1239.2 837.726 1238.29 836.514 1237.27 835.402C1236.27 834.475 1235.21 833.612 1234.1 832.818C1232.98 832.102 1231.83 831.446 1230.65 830.854C1227.17 829.17 1223.45 828.009 1219.63 827.409C1213.16 826.564 1206.61 826.495 1200.12 827.202C1192.83 828.302 1185.64 829.996 1178.62 832.267C1171.2 833.936 1163.59 834.597 1155.99 834.231C1147.89 834.231 1139.79 833.852 1131.87 833.3C1114.99 832.163 1098.28 829.338 1081.46 827.684C1072.33 826.788 1063.17 826.857 1053.9 825.996C1045.5 824.901 1037.04 824.234 1028.57 823.997C1024.98 824.004 1021.4 824.42 1017.89 825.238C1016.73 825.526 1015.57 825.883 1014.45 826.306C994.982 832.094 1000.05 854.559 999.564 869.892V873.785C999.471 876.395 999.137 878.99 998.565 881.538C997.879 878.973 997.327 876.373 996.911 873.751C996.704 872.442 996.532 871.132 996.394 869.823C997.772 856.041 993.741 840.57 999.667 827.409C1000.58 826.102 1001.7 824.95 1002.98 823.997V823.997Z" fill="#31313B"/>
<path d="M1297.18 654.65C1298.25 653.168 1299.28 651.963 1299.6 651.515C1304.03 645.744 1307.92 639.573 1311.21 633.081C1311.9 631.772 1312.55 630.462 1313.17 629.153C1316.86 620.884 1320.44 612.856 1323.51 604.449C1324.06 603.036 1324.61 601.589 1325.13 600.142C1328.82 589.997 1331.92 579.642 1334.39 569.132C1335.36 565.204 1336.25 561.276 1337.08 557.348C1340.12 543.924 1342.21 530.304 1343.35 516.588C1343.66 513.142 1343.9 509.697 1344.14 506.251C1345.28 489.024 1347.59 471.796 1344.14 454.568C1343.9 452.811 1343.63 451.123 1343.32 449.366C1342.7 445.92 1342.04 442.233 1341.15 438.753C1340.8 437.513 1338.91 432.172 1341.8 433.516C1343.35 434.24 1344.04 439.305 1344.52 440.821C1345.42 443.853 1346.28 446.919 1347 450.02C1347.38 451.674 1347.76 453.466 1348.11 454.982C1351.2 468.301 1352.92 481.901 1353.24 495.57V510.903C1353.07 521.273 1352.32 531.625 1351 541.912C1350.66 544.428 1350.28 546.943 1349.83 549.424C1348.97 554.42 1347.9 559.381 1346.66 564.274C1345.83 567.536 1344.94 570.774 1343.97 573.99C1341.77 581.157 1339.29 588.289 1336.43 595.249L1334.67 599.453C1328.64 613.282 1321.39 626.543 1313 639.076L1310.45 642.522C1307 647.277 1303.32 651.928 1299.63 656.683C1298.8 657.751 1296.18 661.92 1294.43 661.093C1292.67 660.266 1295.18 657.131 1297.18 654.65V654.65ZM925.831 458.496C926.27 456.379 926.592 454.24 926.796 452.088C927.176 446.869 928.871 441.831 931.723 437.444C931.869 437.159 932.074 436.908 932.323 436.706C932.572 436.504 932.861 436.357 933.17 436.273C934.583 439.063 933.17 443.68 932.653 446.609C932.136 449.538 931.93 453.121 931.688 456.394C931.309 460.495 931.103 464.698 931.068 468.902V473.105C931.268 484.392 932.038 495.662 933.377 506.871C933.549 508.25 933.721 509.662 933.928 511.041C934.135 512.419 934.307 513.797 934.514 515.21C935.065 518.655 935.651 522.273 936.305 525.822C937.787 533.884 939.751 541.775 941.749 549.699C942.645 552.869 943.575 555.97 944.54 559.037C952.258 587.669 960.251 616.164 976.1 641.454C977.823 644.245 979.546 646.967 981.269 649.757C983.081 652.735 985.072 655.6 987.229 658.337C988.091 659.405 994.809 665.228 991.157 665.503C988.091 665.71 982.474 656.717 980.821 654.547C979.167 652.376 976.996 649.689 975.205 647.139C956.641 618.991 942.359 588.243 932.825 555.901C931.723 551.904 930.724 547.873 929.793 543.807C928.071 536.227 926.623 528.544 925.486 520.826C925.28 519.275 925.039 517.725 924.832 516.174C923.379 505.34 922.907 494.396 923.419 483.476C923.66 478.411 924.315 473.346 924.453 468.35C924.642 465.034 925.103 461.738 925.831 458.496V458.496ZM986.781 398.854C984.576 398.854 980.648 401.094 980.648 399.819C972.827 374.632 999.874 355.027 1019.96 343.588L1027.4 339.281L1035.12 335.146C1037.53 333.94 1039.98 332.838 1042.46 331.701C1054.87 326.817 1067.83 323.484 1081.05 321.778C1087.99 320.746 1094.96 319.988 1101.96 319.504C1104.89 319.297 1107.23 319.504 1109.85 319.504C1133.97 318.539 1157.61 317.574 1180.9 323.5C1184.34 324.259 1187.45 325.051 1190.68 325.912C1200.43 328.428 1210.05 331.253 1219.56 333.975C1222.52 335.077 1225.45 336.283 1228.34 337.42C1239.98 342.407 1251.03 348.67 1261.28 356.095C1262.97 357.473 1264.73 358.886 1266.24 360.299C1267.76 361.711 1269.48 363.193 1271.03 364.709C1283.81 377.595 1295.74 391.619 1299.35 409.811C1299.98 412.454 1300.05 415.197 1299.57 417.87C1299.09 420.543 1298.07 423.089 1296.56 425.35C1295.17 427.527 1292.99 429.08 1290.48 429.684C1287.97 430.288 1285.32 429.895 1283.09 428.589C1265.86 415.841 1254.56 398.372 1235.68 388.862C1233.41 387.518 1231.1 386.209 1228.79 385.003C1226.48 383.797 1224.1 382.591 1221.69 381.558C1218.52 380.076 1215.28 378.663 1212.01 377.354C1201.88 373.16 1191.4 369.851 1180.69 367.465C1177.25 366.673 1173.53 365.984 1169.94 365.364C1134.77 359.709 1098.87 360.269 1063.89 367.017C1060.62 367.672 1057.31 368.396 1054.04 369.188C1047.46 370.739 1040.94 372.634 1034.5 374.667C1031.3 375.735 1028.13 376.837 1024.96 378.112C1014.99 381.587 1005.68 386.699 997.393 393.238C994.086 395.133 990.537 397.062 986.781 398.854V398.854Z" fill="white"/>
<path d="M1328.78 484.544C1329.05 484.2 1328.78 484.717 1327.64 486.026C1326.94 487.2 1325.92 488.148 1324.7 488.759C1323.48 489.37 1322.11 489.617 1320.75 489.472C1318.1 488.828 1315.7 487.413 1313.86 485.406C1304.97 474.07 1293.91 461.804 1294.98 446.713C1295.18 445.263 1295.78 443.897 1296.71 442.767C1297.64 441.636 1298.87 440.784 1300.25 440.304C1309.38 437.41 1317.96 442.716 1323.37 449.71C1328.83 456.982 1331.88 465.773 1332.12 474.863C1332.01 478.354 1330.85 481.731 1328.78 484.544V484.544ZM1323.85 512.832C1324.86 513.429 1325.74 514.226 1326.43 515.174C1327.13 516.122 1327.62 517.201 1327.88 518.345C1328.34 520.057 1328.39 521.851 1328.03 523.585C1327.67 525.319 1326.91 526.946 1325.81 528.337C1325.45 529.183 1324.89 529.937 1324.2 530.542C1323.6 531.126 1322.89 531.567 1322.1 531.834C1321.31 532.101 1320.47 532.186 1319.65 532.084C1318.82 531.981 1318.03 531.693 1317.33 531.241C1316.63 530.789 1316.05 530.185 1315.62 529.474C1313.17 524.581 1312.58 515.933 1317.86 512.557C1318.78 512.043 1319.83 511.796 1320.89 511.845C1321.95 511.894 1322.98 512.235 1323.85 512.832V512.832ZM1372.98 852.596C1379.63 841.777 1393.66 840.295 1404.68 836.781C1406.58 836.402 1408.47 836.057 1410.37 835.85C1416.69 835.017 1423.11 835.273 1429.35 836.608C1430.59 836.884 1431.87 837.194 1433.07 837.573C1445.46 840.673 1456.89 846.753 1466.39 855.283C1467.66 856.523 1468.91 857.833 1470.04 859.177C1483.82 874.819 1476.49 897.525 1466.6 913.443C1465.56 914.753 1464.5 916.028 1463.36 917.234C1462.02 918.674 1460.58 920.021 1459.05 921.265C1454.1 924.594 1448.31 926.457 1442.34 926.64C1440.41 926.64 1438.41 926.812 1436.48 926.812C1432.18 926.485 1427.86 926.485 1423.56 926.812L1419.29 927.191C1403.84 929.659 1388.02 928.226 1373.26 923.022C1371.33 922.122 1369.49 921.025 1367.78 919.749C1364.31 917.176 1361.66 913.66 1360.13 909.619C1359.52 908.209 1359.02 906.759 1358.62 905.278C1358.41 903.658 1359.06 903.21 1359.06 901.832C1359.06 897.491 1356.2 896.009 1352.59 895.596C1350.68 895.457 1348.77 895.457 1346.87 895.596C1345.05 895.704 1343.24 895.704 1341.42 895.596C1339.48 895.544 1337.54 895.314 1335.63 894.907C1332.19 893.976 1327.71 891.461 1329.05 888.016C1330.16 883.885 1331.82 879.922 1333.98 876.232C1335.03 874.398 1336.18 872.626 1337.43 870.926C1338.61 868.351 1340.73 866.32 1343.35 865.241C1344.78 864.563 1346.27 864.009 1347.8 863.587C1349.31 863.139 1350.9 862.794 1352.48 862.484C1358.17 860.83 1365.71 860.865 1370.16 855.903C1371.16 854.851 1372.1 853.747 1372.98 852.596V852.596Z" fill="white"/>
<path d="M1327.5 883.123C1327.56 882.886 1327.64 882.656 1327.74 882.434C1329.55 877.612 1332.22 873.163 1335.63 869.306C1336.49 868.359 1337.4 867.462 1338.36 866.619C1340.68 863.841 1343.77 861.804 1347.25 860.761C1348.35 860.417 1349.49 860.107 1350.69 859.865C1352.01 859.388 1353.39 859.12 1354.79 859.073H1359.13C1360.44 859.096 1361.73 858.833 1362.92 858.304C1364.11 857.774 1365.17 856.99 1366.02 856.006C1366.92 854.869 1367.85 853.767 1368.78 852.561C1373.56 847.092 1379.43 842.68 1386.01 839.606C1390.12 837.72 1394.41 836.265 1398.82 835.264H1399.51C1400.75 834.989 1402.03 834.748 1403.27 834.541C1410.79 833.305 1418.44 833.096 1426.01 833.921C1430.76 834.444 1435.4 835.663 1439.79 837.538C1440.69 837.917 1441.55 838.331 1442.44 838.779C1454.12 846.704 1468.94 851.079 1476 864.138C1476.65 865.374 1477.21 866.652 1477.69 867.962C1479.14 871.905 1479.74 876.108 1479.45 880.297C1479.45 881.882 1479.17 883.502 1478.93 885.087C1478.69 886.672 1478.28 888.222 1477.86 889.773L1477.45 892.805C1476.93 896.83 1476.12 900.814 1475.04 904.726C1474.59 906.029 1474.08 907.306 1473.49 908.551C1471.58 912.666 1468.92 916.384 1465.63 919.507L1465.01 920.093C1464.39 920.645 1463.7 921.196 1463.05 921.713C1461.89 922.684 1460.6 923.496 1459.22 924.124C1448.05 927.899 1436.49 930.463 1424.77 931.774C1423.29 931.774 1421.84 932.015 1420.36 932.049C1418.88 932.084 1417.4 932.049 1415.88 932.049L1411.57 931.843L1408.13 931.498L1404.68 931.119C1389.97 929.947 1373.02 929.465 1361.85 917.337C1361.07 916.395 1360.35 915.393 1359.72 914.339C1359.08 913.239 1358.54 912.086 1358.1 910.894C1357.28 908.478 1356.93 905.929 1357.07 903.382V902.59V899.902C1356.89 898.765 1356.69 897.663 1356.55 896.457C1356.34 892.632 1356.17 888.705 1356.31 884.777C1356.35 877.523 1358 870.369 1361.13 863.828C1358.81 864.028 1356.5 864.42 1354.24 864.999C1353.07 865.34 1351.92 865.754 1350.79 866.24C1347.6 867.65 1344.68 869.596 1342.15 871.994C1341.22 872.885 1340.35 873.828 1339.53 874.819C1336.93 877.974 1334.89 881.552 1333.5 885.397C1332.68 887.631 1332.08 889.938 1331.71 892.288C1331.62 892.469 1331.51 892.633 1331.36 892.77C1331.13 893.009 1330.86 893.195 1330.55 893.315C1330.24 893.434 1329.91 893.484 1329.58 893.461C1329.25 893.438 1328.93 893.343 1328.65 893.182C1328.36 893.02 1328.11 892.798 1327.92 892.529C1326.96 890.697 1326.67 888.591 1327.09 886.568C1327.14 885.411 1327.28 884.26 1327.5 883.123V883.123ZM1360.44 898.318C1360.68 900.006 1360.96 901.763 1361.34 903.279C1361.68 906.191 1362.6 909.004 1364.06 911.548C1364.73 912.68 1365.52 913.742 1366.4 914.718C1376.43 925.055 1391.49 925.055 1404.92 926.536C1406.47 926.743 1407.99 926.881 1409.54 927.019C1411.09 927.157 1412.06 927.26 1413.36 927.329C1414.63 927.416 1415.89 927.416 1417.15 927.329C1430.42 924.745 1444.72 924.09 1456.98 918.749C1458.19 918.233 1459.36 917.647 1460.43 917.027C1462.35 915.431 1464.07 913.615 1465.56 911.617C1466.56 910.274 1467.41 908.83 1468.11 907.31C1469.49 901.901 1471.56 895.94 1472.7 890.083C1472.94 888.842 1473.18 887.636 1473.32 886.43C1473.83 883.449 1473.91 880.408 1473.56 877.403C1473.37 874.933 1472.81 872.505 1471.9 870.202C1471.45 869.021 1470.92 867.87 1470.32 866.756C1464.74 856.42 1453.3 852.768 1444.2 846.807L1440.76 845.015C1437.39 843.204 1433.82 841.826 1430.11 840.915C1423.48 839.544 1416.68 839.218 1409.95 839.95C1406.92 840.226 1403.92 840.605 1400.96 841.156C1391.68 842.505 1382.98 846.5 1375.91 852.664C1374.87 853.635 1373.88 854.658 1372.95 855.731C1372.26 856.558 1371.61 857.419 1370.95 858.281C1368.19 862.898 1365.16 867.308 1362.72 872.442C1362.15 873.615 1361.69 874.838 1361.34 876.094C1360.58 878.773 1360.09 881.519 1359.86 884.294C1359.52 888.976 1359.72 893.68 1360.44 898.318V898.318Z" fill="#31313B"/>
<path d="M807.169 868.927C808.616 860.21 810.615 850.838 817.85 844.05C818.815 843.086 819.814 842.155 820.848 841.26C822.525 839.84 824.273 838.506 826.085 837.263C833.399 832.177 841.271 827.946 849.548 824.652C851.32 823.679 853.149 822.816 855.027 822.068C856.811 821.369 858.642 820.793 860.505 820.345C862.607 820.104 864.708 819.932 866.81 819.863C885.554 819.863 902.367 830.199 918.079 838.813L922.833 841.639C924.453 842.534 926.279 843.396 927.795 844.154C929.515 844.925 931.288 845.57 933.101 846.083C934.807 846.643 936.544 847.103 938.304 847.461C945.607 848.928 953.169 848.428 960.217 846.014C961.055 845.678 961.971 845.583 962.86 845.742C963.75 845.9 964.577 846.305 965.247 846.91C966.898 847.9 968.445 849.055 969.864 850.356C971.39 851.601 972.798 852.985 974.068 854.49C975.397 855.986 976.553 857.627 977.513 859.383C978.589 861.316 978.863 863.593 978.277 865.726C977.69 867.859 976.29 869.677 974.378 870.788C972.959 871.796 971.335 872.478 969.623 872.786C966.625 873.303 963.662 872.166 960.596 872.786C957.529 873.406 950.259 874.268 948.64 876.576C947.736 878.792 947.089 881.104 946.711 883.467C946.264 884.862 945.929 886.291 945.711 887.74C945.47 889.187 945.263 890.634 944.919 892.081C939.682 913.891 911.429 914.029 893.237 915.821C891.272 915.593 889.326 915.225 887.414 914.718C885.511 914.233 883.646 913.611 881.832 912.858C880.123 911.927 878.487 910.868 876.94 909.688C875.217 908.884 873.494 908.16 871.772 907.517C859.714 902.756 847.028 899.774 834.113 898.662C831.977 898.145 829.909 897.525 827.807 896.87C825.706 896.216 823.122 893.942 820.917 892.701C819.599 891.813 818.344 890.834 817.161 889.773C813.487 886.626 810.697 882.577 809.064 878.023L808.134 874.13C807.479 872.063 807.273 870.512 807.169 868.927V868.927Z" fill="white"/>
<path d="M804.62 874.268V870.616C804.62 868.859 804.62 867.17 804.895 865.31C805.079 863.492 805.366 861.685 805.757 859.9C806.58 856.331 808.381 853.062 810.959 850.46L811.442 849.77C811.265 849.486 811.171 849.158 811.171 848.823C811.171 848.488 811.265 848.16 811.442 847.875C816.297 841.128 822.67 835.616 830.047 831.785C836.723 827.924 843.626 824.472 850.72 821.448C853.673 820.268 856.714 819.324 859.816 818.623C860.85 818.382 861.918 818.175 862.951 818.003L863.916 817.761C865.121 817.488 866.34 817.281 867.568 817.141C868.636 816.969 869.705 816.9 870.738 816.831C874.657 816.687 878.574 817.152 882.349 818.209C883.314 818.485 884.279 818.761 885.243 819.105C890.722 821.552 896.269 823.791 901.885 825.996L906.088 827.581L909.844 829.097L913.634 830.51C922.351 833.439 929.69 839.055 937.959 843.327C939.13 843.913 940.336 844.499 941.404 845.05C941.934 845.524 942.585 845.842 943.284 845.97C943.983 846.098 944.704 846.03 945.367 845.774C950.125 844.987 954.99 845.115 959.7 846.153C963.073 846.921 966.296 848.236 969.244 850.046L970.381 850.735C972.845 852.441 974.981 854.577 976.686 857.041C978.39 859.334 979.58 861.967 980.175 864.762C980.769 867.556 980.755 870.446 980.132 873.234C979.878 874.232 979.555 875.21 979.167 876.163C978.982 876.495 978.719 876.778 978.402 876.987C978.085 877.197 977.722 877.328 977.344 877.368C976.966 877.409 976.584 877.358 976.23 877.22C975.876 877.082 975.559 876.862 975.308 876.577C974.543 874.773 974.032 872.871 973.792 870.926C973.552 868.097 973.009 865.301 972.173 862.588C971.554 860.767 970.608 859.074 969.382 857.592C966.581 854.244 962.872 851.779 958.701 850.494C954.704 849.185 945.815 847.393 943.093 851.976C941.611 854.525 943.575 858.246 944.988 861.278C945.332 862.037 945.608 862.726 945.849 863.346C947.256 867.447 948.226 871.686 948.743 875.991C948.743 876.749 948.743 877.472 948.95 878.196C949.157 878.92 948.95 880.16 948.95 881.159C948.983 883.208 948.88 885.257 948.64 887.292C948.29 890.386 947.537 893.421 946.4 896.32C946.021 897.284 945.574 898.214 945.126 899.145C944.678 900.075 944.126 901.074 943.575 901.97C942.028 904.394 940.012 906.484 937.645 908.117C935.278 909.75 932.608 910.893 929.793 911.48L925.934 911.962L922.041 912.617C911.705 915.442 900.852 918.715 889.86 917.544C888.482 917.406 887.104 917.199 885.726 916.924C875.045 914.891 865.88 909.344 855.44 906.243C853.028 905.726 850.754 905.967 848.549 905.243C846.686 905.072 844.834 904.796 843.002 904.416C836.485 902.601 830.205 900.022 824.293 896.733C819.235 894.241 814.444 891.239 809.995 887.775C809.385 887.297 808.831 886.754 808.341 886.155C805.908 882.67 804.609 878.519 804.62 874.268V874.268ZM818.987 885.879L820.021 886.5C822.949 888.291 825.878 889.945 828.945 891.668C833.834 894.357 839.012 896.484 844.38 898.008C845.448 898.283 846.551 898.525 847.826 898.697C850.72 899.283 853.442 899.352 856.198 899.834C867.465 903.279 877.422 909.102 888.965 910.894C890.481 911.101 891.962 911.239 893.478 911.307C903.815 911.824 914.53 908.896 924.798 907.035C926.107 906.794 927.416 906.449 928.725 906.07C932.706 904.574 936.198 902.011 938.82 898.662C939.609 897.596 940.269 896.439 940.784 895.217C941.377 893.975 941.861 892.684 942.232 891.358C943.06 887.979 943.397 884.497 943.231 881.021V879.126C943.231 877.955 943.127 876.806 942.921 875.681C942.921 874.509 942.611 873.338 942.369 872.235C941.544 868.426 940.473 864.674 939.165 861.003C938.821 860.176 938.441 859.383 938.028 858.591C937.615 857.799 937.029 856.42 936.477 855.352C933.687 845.601 922.386 841.811 914.082 837.298L910.637 835.678C909.488 835.15 908.34 834.599 907.191 834.024L903.057 832.095C896.167 828.921 889.006 826.372 881.66 824.48C880.661 824.205 879.627 823.963 878.594 823.757C876.525 823.298 874.431 822.965 872.323 822.757C871.038 822.671 869.749 822.671 868.464 822.757C867.156 822.859 865.855 823.043 864.571 823.309L861.677 823.895L858.231 824.825C856.508 825.342 854.786 825.893 853.132 826.548C846.522 829.419 840.08 832.663 833.837 836.264C823.949 841.294 817.85 846.601 813.647 856.937C812.119 860.833 811.347 864.984 811.373 869.169C811.373 874.165 811.373 878.885 814.818 882.744C816.052 883.981 817.456 885.037 818.987 885.879V885.879Z" fill="#31313B"/>
</svg>
