<svg width="3188" height="425" viewBox="0 0 3188 425" fill="none" xmlns="http://www.w3.org/2000/svg">
<path d="M861.722 195.138C878.084 193.127 894.677 194.19 910.648 198.273C919.572 200.306 928.289 202.924 937.04 205.646C945.792 208.368 953.578 209.471 961.158 214.984C964.604 217.464 962.778 223.839 958.195 223.081C950.366 221.32 942.85 218.381 935.903 214.364C928.119 210.894 920.05 208.104 911.785 206.025C895.964 200.915 879.297 198.949 862.721 200.237C859.345 200.581 858.38 195.654 861.722 195.138ZM396.791 223.081C410.849 219.635 424.355 214.019 438.481 211.607C445.724 210.093 453.054 209.035 460.429 208.437C468.204 208.133 475.989 208.225 483.755 208.713C498.815 209.928 513.778 212.138 528.546 215.328C535.781 216.741 543.017 218.257 550.287 219.67C557.557 221.082 566.756 223.322 574.405 222.15C590.706 220.072 607.159 219.438 623.572 220.255C640.006 220.634 656.407 220.634 672.842 220.497C682.455 220.497 692.068 220.876 701.715 221.427C698.33 220.607 694.861 220.191 691.379 220.186C686.004 220.186 680.319 220.6 675.564 217.74C675 217.33 674.552 216.781 674.264 216.146C673.976 215.512 673.858 214.813 673.92 214.119C673.983 213.425 674.224 212.758 674.621 212.185C675.018 211.612 675.556 211.152 676.184 210.849C681.111 207.92 688.312 208.782 693.756 209.643C699.344 210.51 704.727 212.39 709.639 215.19C710.187 215.555 710.635 216.05 710.946 216.63C711.256 217.21 711.418 217.858 711.418 218.515C711.418 219.173 711.256 219.821 710.946 220.401C710.635 220.981 710.187 221.475 709.639 221.84L720.906 222.495C737.272 223.391 753.603 223.908 770.004 224.39C773.449 224.39 772.898 229.558 769.59 229.662C753.466 230.179 737.479 231.212 721.354 232.728C705.229 234.244 689.346 236.174 673.324 236.725C657.303 237.276 640.454 237.38 624.054 237.345C607.654 237.311 591.012 236.897 575.232 232.521C545.949 226.403 516.338 221.974 486.546 219.256C478.613 218.774 470.655 218.877 462.737 219.566C455.14 220.456 447.725 222.513 440.755 225.665C427.023 231.924 411.693 233.79 396.86 231.005C395.898 230.887 395.011 230.423 394.366 229.7C393.721 228.976 393.36 228.043 393.352 227.073C393.343 226.104 393.687 225.164 394.32 224.43C394.953 223.695 395.831 223.216 396.791 223.081V223.081ZM2802.38 305.188C2809.55 301.306 2816.76 297.481 2824.02 293.714C2831.78 290.205 2839.72 287.088 2847.79 284.377C2862.91 278.717 2878.3 273.852 2893.93 269.802C2901.23 267.735 2909.19 267.528 2916.63 265.978C2924.94 264.22 2933.31 262.532 2941.65 260.913C2947.02 259.845 2951.64 259.707 2955.91 256.054C2959.2 253.015 2962.05 249.536 2964.39 245.718C2965.37 243.936 2966.74 242.393 2968.39 241.202C2970.04 240.011 2971.93 239.199 2973.93 238.827C2981.53 237.963 2989.22 238.488 2996.64 240.377C3003.44 242.111 3010.34 243.411 3017.31 244.271C3023.08 244.524 3028.82 243.214 3033.92 240.481C3043.29 235.829 3051.14 226.974 3058.41 219.635C3065.68 212.296 3073.19 204.44 3082.98 199.341C3085.79 197.833 3088.78 196.676 3091.87 195.895C3099.07 194.104 3102.2 204.888 3095.69 207.955C3092.49 209.663 3089.68 212.008 3087.42 214.846L3076.57 227.215C3069.26 236.429 3061.02 244.858 3051.97 252.368C3032.19 267.425 3007.18 261.016 2983.92 263.772L2981.54 264.048C2981.8 264.447 2981.9 264.919 2981.85 265.388C2981.8 265.856 2981.6 266.295 2981.27 266.632C2975.93 271.973 2969.62 279.174 2961.53 279.587C2959.01 279.587 2958.08 275.832 2960.8 275.694C2967.69 275.315 2973.1 269.32 2977.75 264.565C2956.4 267.578 2935.47 273.023 2915.36 280.793C2908.12 283.619 2900.99 286.72 2893.51 288.856C2886.04 290.992 2877.59 293.576 2869.67 296.057C2862.3 298.331 2854.82 300.157 2847.34 302.087C2839.04 304.292 2831.05 307.083 2822.61 308.978C2816.66 310.218 2810.72 311.493 2804.79 312.802C2800.18 313.733 2798.56 307.255 2802.38 305.188V305.188ZM2653.71 323.518C2663.15 323.789 2672.58 322.862 2681.79 320.761C2691.2 318.901 2700.53 317.592 2709.8 315.042C2728.68 309.839 2746.87 304.705 2766.65 305.498C2770.37 305.498 2770.79 311.872 2767 312.079C2747.53 313.147 2728.48 320.451 2710.01 326.136C2700.48 329.668 2690.64 332.276 2680.62 333.923C2671.01 334.848 2661.31 334.031 2651.99 331.511C2647.33 330.374 2649.23 323.242 2653.71 323.518ZM2744.5 286.41C2734.16 288.615 2721.24 290.372 2712.38 282.723C2711.59 282.132 2710.93 281.369 2710.47 280.49C2710 279.611 2709.74 278.639 2709.71 277.646C2709.67 276.653 2709.86 275.664 2710.26 274.754C2710.65 273.843 2711.25 273.034 2712.01 272.386C2719.72 265.702 2730.37 266.012 2739.95 266.667C2748.45 267.862 2757.07 267.781 2765.55 266.425C2766.58 266.268 2767.64 266.45 2768.56 266.945C2769.48 267.439 2770.21 268.219 2770.65 269.167C2771.09 270.115 2771.21 271.18 2770.99 272.202C2770.77 273.223 2770.23 274.147 2769.44 274.832C2762.1 280.51 2753.57 284.466 2744.5 286.41V286.41ZM2545.87 357.525C2559.19 356.984 2572.49 358.864 2585.14 363.072C2587.69 363.83 2586.8 368.206 2584.14 367.689C2572.59 365.38 2560.8 364.558 2549.04 365.243C2537.29 365.967 2527.33 370.136 2516.51 374.236C2515.87 374.519 2515.15 374.563 2514.48 374.359C2513.8 374.155 2513.23 373.717 2512.85 373.125C2512.48 372.532 2512.33 371.825 2512.43 371.131C2512.53 370.437 2512.88 369.803 2513.41 369.343C2521.75 361.005 2534.6 358.455 2545.87 357.525ZM2182.02 418.925C2215.82 413.274 2249.9 406.969 2281.94 394.806C2284.46 393.876 2286.28 397.597 2283.73 398.665C2251.35 412.068 2217.34 418.959 2182.92 424.713C2182.15 424.832 2181.37 424.641 2180.74 424.182C2180.12 423.723 2179.7 423.034 2179.58 422.267C2179.46 421.499 2179.65 420.716 2180.11 420.089C2180.57 419.462 2181.26 419.043 2182.02 418.925ZM133.316 249.232C140.27 244.67 147.656 240.804 155.368 237.69C163.36 234.782 171.701 232.94 180.175 232.211C188.827 231.482 197.54 232.287 205.912 234.589C214.629 236.656 223.415 238.241 232.132 240.274C239.023 241.824 236.301 253.229 229.514 252.126C221.863 250.761 214.096 250.149 206.326 250.3C198.574 250.542 190.89 252.092 183.069 252.23C167.483 252.337 151.931 253.673 136.555 256.227C132.903 256.881 129.664 251.472 133.316 249.232V249.232ZM4.31826 198.101C37.6014 197.274 70.2646 188.729 103.065 183.974C118.994 181.283 135.166 180.313 151.302 181.08L155.574 181.459C155.5 180.642 155.719 179.826 156.193 179.156C156.666 178.487 157.363 178.008 158.158 177.806C174.242 174.175 190.553 171.642 206.981 170.226C206.717 169.821 206.567 169.353 206.544 168.87C206.522 168.387 206.628 167.907 206.853 167.479C207.077 167.051 207.412 166.691 207.822 166.435C208.232 166.179 208.703 166.037 209.186 166.023L225.931 165.747C226.299 165.733 226.665 165.804 227.002 165.954C227.338 166.104 227.636 166.328 227.872 166.611C228.109 166.894 228.277 167.227 228.364 167.585C228.452 167.943 228.456 168.316 228.377 168.676C237.404 168.193 246.466 167.849 255.458 167.608C272.065 167.16 288.569 167.436 305.176 167.883C307.485 167.883 309.793 168.09 312.067 168.262C312.14 167.156 312.47 166.082 313.032 165.127C315.921 159.879 320.588 155.835 326.194 153.722C332.189 151.586 338.356 149.967 344.489 148.244C357.995 144.523 371.157 145.798 384.904 147.107C391.141 147.727 397.308 148.554 403.51 149.346C410.07 150.772 416.726 151.716 423.425 152.172H432.831C436.069 150.242 439.274 148.244 442.547 146.521C455.774 138.962 470.662 134.785 485.891 134.358C496.711 134.336 507.516 135.154 518.209 136.805C530.165 128.191 544.188 128.501 558.177 131.326C565.948 133.086 573.855 134.181 581.813 134.6C589.404 134.329 596.962 133.453 604.415 131.981C619.368 129.81 634.321 127.605 649.206 125.09C645.318 125.355 641.42 125.412 637.526 125.262C632.323 125.055 631.772 116.373 637.044 116.028C646.805 115.187 656.514 113.806 666.123 111.894C671.302 110.894 676.538 110.215 681.8 109.861C682.214 109.172 682.661 108.483 683.109 107.793C683.571 107.146 684.23 106.665 684.988 106.423C685.746 106.18 686.562 106.19 687.314 106.45C688.066 106.709 688.714 107.205 689.161 107.864C689.608 108.522 689.83 109.307 689.794 110.102C691.742 110.308 693.667 110.688 695.547 111.239C696.053 111.382 696.513 111.656 696.879 112.033C697.246 112.41 697.507 112.877 697.636 113.387C697.765 113.896 697.758 114.431 697.615 114.937C697.472 115.443 697.199 115.902 696.822 116.269L698.269 115.994C701.336 115.339 702.025 119.853 699.131 120.68L689.277 123.402C689.277 124.091 689.518 124.78 689.656 125.503C690.531 131.305 689.217 137.224 685.969 142.111C683.971 145.556 679.078 144.213 677.493 141.353C674.896 137.142 673.826 132.167 674.461 127.261C652.893 132.774 631.14 137.482 609.204 141.387C598.496 143.657 587.59 144.869 576.644 145.005C574.715 145.005 552.698 145.97 552.767 146.177C554.49 150.828 557.04 158.201 549.322 158.753C542.021 159.425 534.675 159.425 527.374 158.753C519.277 157.891 511.215 156.065 503.084 155.066C495.619 154.163 488.104 153.726 480.585 153.757C476.933 153.757 473.28 153.516 469.594 153.757H462.703C462.428 154.163 462.047 154.485 461.6 154.687C451.383 159.983 440.432 163.723 429.11 165.782C427.387 166.092 425.664 166.333 423.941 166.609L417.05 169.158C413.605 170.364 410.711 172.363 407.369 173.569C404.027 174.774 400.753 175.705 397.446 176.635C390.004 178.702 381.045 178.048 373.327 178.392C365.61 178.737 357.341 180.149 349.209 181.08C340.822 181.597 332.41 181.597 324.023 181.08C320.026 181.08 316.133 181.769 312.102 181.666L300.215 181.321C291.601 181.08 282.988 180.907 274.443 180.322C241.16 178.082 208.083 176.876 174.972 181.597C172.009 182.01 169.08 182.527 166.117 183.078C177.559 185.417 188.717 188.974 199.4 193.69C199.994 193.905 200.479 194.347 200.747 194.919C201.015 195.491 201.045 196.146 200.83 196.74C200.616 197.334 200.174 197.818 199.602 198.086C199.03 198.354 198.375 198.384 197.781 198.17C181.939 193.173 165.35 190.959 148.752 191.623C132.275 191.713 115.824 192.945 99.5165 195.31C67.6115 199.789 36.0512 206.852 3.62933 206.336C-1.71114 206.094 -0.884396 198.101 4.31826 198.101V198.101Z" fill="white"/>
<path d="M59.6178 218.98C65.9919 215.535 72.3316 211.917 79.0502 209.161C87.8406 205.714 97.0332 203.399 106.407 202.27C116.728 201.301 127.122 201.428 137.416 202.649C165.704 205.026 192.544 208.472 220.934 207.989C253.632 207.472 287.432 208.334 319.613 201.96C351.242 195.689 383.939 196.205 415.603 189.9C421.871 188.572 428.06 186.892 434.14 184.87L443.167 181.907C447.198 180.597 450.54 177.979 454.675 176.876C468.939 173.052 484.685 174.464 499.156 176.876C509.082 178.407 518.751 181.294 527.891 185.455C538.188 190.031 549.797 190.705 560.554 187.351C562.69 186.73 564 190.348 561.726 191.072C554.987 193.092 548.061 194.42 541.053 195.034C533.377 196.107 525.647 196.751 517.899 196.964C510.463 196.698 503.046 196.054 495.676 195.034C488.093 194.43 480.466 195.296 473.212 197.584C467.064 199.628 460.744 201.115 454.33 202.028C447.544 203.299 440.881 205.155 434.416 207.576C419.578 211.52 404.413 214.115 389.108 215.328C372.707 217.085 356.307 218.464 339.838 219.291C332.035 219.595 324.221 219.399 316.443 218.705C307.933 218.085 299.491 218.257 290.946 218.257C265.14 218.257 239.264 219.359 213.596 219.911C192.923 220.324 171.182 217.499 151.302 223.149C138.209 226.871 124.255 224.631 110.783 224.218C101.825 223.907 92.9355 222.15 84.0807 221.151C76.1906 220.29 68.7483 219.601 61.4095 222.874C61.1538 222.992 60.8775 223.058 60.5963 223.069C60.3151 223.079 60.0346 223.035 59.7707 222.937C59.5067 222.84 59.2645 222.691 59.058 222.5C58.8515 222.309 58.6846 222.079 58.5669 221.823C58.4493 221.567 58.3833 221.291 58.3724 221.01C58.3616 220.729 58.406 220.448 58.5036 220.184C58.6012 219.92 58.7499 219.678 58.941 219.471C59.1322 219.265 59.3621 219.098 59.6178 218.98V218.98ZM2790.29 173.982C2784.39 175.268 2778.37 175.961 2772.34 176.049C2759.83 175.498 2747.22 175.567 2734.82 173.878C2730.61 173.327 2729.89 166.815 2734.44 166.195C2746.6 164.541 2758.93 164.576 2771.2 164.059C2777.47 164.064 2783.73 164.711 2789.87 165.988C2796.73 166.815 2803.64 167.252 2810.55 167.298C2813.99 167.298 2813.51 172.569 2810.1 172.742C2803.48 172.764 2796.86 173.178 2790.29 173.982V173.982ZM2689.27 176.153C2692.02 176.153 2691.64 180.425 2688.92 180.425H2676.35C2673.59 180.425 2673.97 176.153 2676.69 176.153H2689.27ZM2659.6 180.873C2656.4 180.873 2656.88 176.084 2659.98 176.015H2668.35C2671.8 176.015 2671.28 181.217 2667.94 181.148L2659.6 180.873ZM2643.17 180.632C2645.58 180.632 2645.27 184.318 2642.89 184.318C2640.51 184.318 2640.82 180.632 2643.17 180.632ZM1782.66 207.92C1769.81 205.991 1756.82 205.095 1743.9 203.682C1737.01 202.924 1730.12 202.063 1723.23 201.615C1716.34 201.167 1709.93 201.615 1703.35 200.685C1699.9 200.202 1699.52 195.241 1703.04 194.724C1709.33 194.012 1715.66 193.747 1721.99 193.931C1728.88 193.931 1735.77 193.173 1742.83 192.898C1756.48 192.39 1770.15 193.372 1783.59 195.826C1791.24 197.17 1790.38 209.092 1782.66 207.92V207.92ZM3091.73 103.486C3100.73 95.1698 3107.28 84.5375 3110.65 72.7523C3111.82 68.8635 3111.9 64.7235 3110.85 60.7963C3108.13 53.9052 3101.52 49.6328 3095.21 46.1873C3091.01 43.9132 3094.76 37.2634 3099.07 38.8828C3114.2 44.5679 3130.42 56.1104 3127.84 74.3717C3125.5 90.7724 3108.48 101.936 3094.62 108.069C3094.03 108.307 3093.36 108.329 3092.75 108.13C3092.14 107.932 3091.62 107.525 3091.27 106.981C3090.93 106.436 3090.79 105.789 3090.87 105.151C3090.95 104.513 3091.26 103.924 3091.73 103.486V103.486ZM3014.38 7.66632C3007.21 8.45879 3000.32 9.90591 2993.22 11.1118C2986.13 12.3178 2979.44 12.0076 2972.55 12.5589C2971.83 12.5543 2971.12 12.3203 2970.53 11.8904C2969.95 11.4604 2969.51 10.8565 2969.29 10.1649C2969.07 9.47327 2969.07 8.72933 2969.3 8.03929C2969.53 7.34924 2969.97 6.74839 2970.55 6.32252C2972.99 4.50702 2975.7 3.08833 2978.58 2.11897C2982.2 1.29204 2985.82 0.706345 2989.5 0.223971C2997.43 -0.740776 3006.15 1.67103 3014.04 2.53242C3016.96 2.84251 3017.38 7.32177 3014.38 7.66632ZM2662.39 167.401C2666.42 167.608 2669.87 169.193 2673.97 169.089C2670.05 169.113 2666.14 168.544 2662.39 167.401V167.401Z" fill="white"/>
<path d="M929.012 242.272C942.071 242.858 954.716 234.692 966.499 241.204C969.945 242.065 973.39 242.858 976.835 243.547C994.063 246.992 1012.29 248.095 1027.52 243.375C1062.97 232.383 1015.46 216.293 1003.74 211.779C989.963 206.404 977.524 198.927 963.364 195.551C960.573 194.896 957.713 194.379 954.853 193.966C951.994 193.552 949.031 193.345 946.068 193.139C927.138 192.289 908.35 189.459 890.01 184.697C886.564 183.939 883.119 183.284 879.432 182.664C861.447 179.839 843.186 178.116 825.028 177.048C811.389 175.904 797.666 176.227 784.096 178.013C770.314 180.115 756.532 182.492 742.751 183.216C728.969 183.939 715.187 185.214 701.198 185.386C693.882 185.709 686.551 185.409 679.285 184.49C671.891 183.263 664.439 182.412 656.958 181.941C651.204 181.631 650.516 171.983 656.442 171.604C663.193 171.233 669.907 170.357 676.529 168.986C683.724 167.768 690.983 166.963 698.27 166.574C712.741 165.402 727.349 165.575 741.855 165.196C755.237 164.999 768.614 165.874 781.857 167.814C788.698 168.952 795.601 169.689 802.529 170.019C809.558 170.019 816.587 170.203 823.616 170.571C839.878 171.294 884.428 183.388 891.698 160.234C894.73 150.586 887.977 145.832 882.257 138.63C861.998 112.996 840.188 133.945 813.865 134.599C798.815 135.463 783.743 133.332 769.522 128.328C768.996 128.136 768.569 127.744 768.333 127.236C768.097 126.729 768.072 126.149 768.264 125.624C768.456 125.098 768.849 124.671 769.356 124.435C769.863 124.199 770.444 124.174 770.969 124.366C785.713 128.934 801.543 128.583 816.07 123.367C822.273 121.62 828.304 119.314 834.09 116.476C832.85 97.9043 806.526 111.617 796.913 112.341C790.652 112.985 784.347 113.1 778.067 112.686C760.46 111.17 743.612 107.655 727.384 116.682C724.49 118.302 721.664 113.754 724.317 111.79C728.725 108.508 733.445 105.669 738.409 103.314C744.232 100.523 749.056 96.4228 755.223 94.1143C769.074 88.8092 783.77 86.0543 798.602 85.9828C814.313 85.9828 829.852 85.9828 844.943 84.8113C857.588 83.7777 869.061 91.0133 881.672 90.3587C896.522 89.6007 911.578 88.498 927.221 87.1887C933.595 86.6375 939.383 85.6038 946.033 85.6038C952.028 85.6038 961.262 88.2913 966.43 87.2921C975.802 85.5004 986.207 76.0597 991.927 68.893C1000.99 74.5781 1010.81 79.5741 1017.11 88.7048C1021.28 94.8034 1024 98.0077 1030.52 100.73C1033.73 101.798 1037.02 102.582 1040.37 103.073C1044.44 103.268 1048.51 103.187 1052.57 102.831C1054.54 104.085 1056.84 104.721 1059.18 104.658C1065.13 104.564 1071.07 104.092 1076.96 103.245C1092.81 105.564 1108.86 106.302 1124.85 105.45C1148.91 104.373 1172.86 101.482 1196.48 96.8018C1243.62 91.668 1291.44 83.6743 1338.64 88.946C1340.6 89.1644 1342.57 88.7796 1344.29 87.8434C1369.62 88.9815 1395 88.7399 1420.3 87.1199L1429.43 86.6374C1504.65 86.224 1580.41 90.083 1655.21 79.7464C1674.44 77.1622 1695.56 75.8529 1714.79 74.3714C1734.01 72.8898 1754.03 73.8545 1773.6 72.304C1804.13 69.8577 1833.48 77.5757 1863.87 80.1598C1895.59 83.4365 1927.51 84.4957 1959.38 83.3298C1981.15 81.8398 2002.83 79.1946 2024.33 75.4051C2061.78 69.3065 2101.19 74.3025 2138.68 71.9596C2155.49 70.8914 2172.55 69.6165 2189.29 68.2038C2226.37 65.1029 2262.89 63.5525 2300.31 63.5525C2330.11 63.5525 2358.47 67.756 2388.24 67.756C2418 67.756 2447.05 66.1021 2476.2 65.6542C2505.35 65.2063 2535.43 63.3457 2564.06 65.6542C2587.59 67.6181 2611.02 69.8233 2634.76 69.7889C2657.64 69.7889 2679.55 65.1718 2702.22 63.4835C2752.21 59.7623 2803.14 69.8922 2852.99 69.7889C2864.47 69.7889 2876.22 71.0637 2886.31 67.1702C2897.3 62.9322 2930 39.1925 2933.17 27.6155V27.3744C2936.93 24.1356 2940.47 20.4834 2943.95 17.0378C2945.14 15.8551 2946.15 14.5093 2946.95 13.041C2950.5 14.359 2954.21 15.2159 2957.98 15.5907C2960.99 16.8251 2963.64 18.7911 2965.7 21.3103C2967.35 23.1359 2968.53 25.3351 2969.14 27.7189C2971.07 27.7189 2973 27.4433 2974.96 27.4778C2971.76 27.4778 2976.24 27.4777 2976.62 27.3054C2977.96 27.3054 2979.31 26.9609 2980.65 26.8575C2981.41 26.8575 2982.17 26.6852 2982.89 26.5474C2983.46 26.3985 2984.01 26.2026 2984.54 25.9617C2988.78 23.86 3010.35 19.6219 3014.45 21.069C3022.03 23.6877 3025.44 31.6469 3035.12 27.5811C3033.88 28.098 3029.54 33.5074 3027.78 34.7823C3023.2 38.2278 3018.86 38.6412 3014 40.6741C3009.14 42.707 3009.18 41.57 3005.15 45.0155C3001.12 48.461 2999.67 52.4234 2994.81 55.3521C2987.26 59.3341 2978.56 60.5529 2970.21 58.7976C2970.5 63.8529 2968.99 68.8472 2965.94 72.8898C2953.88 88.7737 2936.2 95.7336 2917.42 98.1455C2914.67 99.5582 2911.84 100.833 2909.05 102.039C2900.89 105.837 2892.52 109.151 2883.97 111.962C2878.23 113.98 2872.29 115.389 2866.26 116.166C2865.02 116.717 2863.81 117.268 2862.61 117.751C2828.05 131.95 2790.82 138.486 2753.49 136.908C2696.19 135.288 2640.1 123.642 2582.7 129.707C2553.93 132.704 2525.47 140.732 2496.56 142.386C2467.07 144.074 2437.57 144.005 2408.05 143.282L2353.44 142.007C2327.46 146.245 2299.48 143.454 2273.23 140.353L2260.99 140.146C2234.91 143.213 2208.8 145.797 2182.75 148.898C2149.71 152.861 2116.49 156.651 2083.17 155.617C2051.44 154.583 2019.23 152.413 1987.56 155.41C1962.14 157.822 1936.71 168.813 1911.76 158.856C1911.12 158.628 1910.55 158.214 1910.14 157.665C1909.73 157.116 1909.5 156.457 1909.46 155.773C1909.43 155.089 1909.6 154.41 1909.96 153.824C1910.31 153.238 1910.83 152.77 1911.45 152.482C1914.35 151.759 1917.2 150.826 1919.96 149.691C1923.16 147.645 1926.65 146.078 1930.3 145.039C1937.19 143.006 1944.08 141.284 1950.97 139.63L1914.79 141.49C1903.91 142.042 1892.98 142.696 1882.1 143.42C1824.45 149.622 1767.02 158.236 1709.07 161.578C1591.27 168.469 1473.19 153.894 1355.25 158.132C1349.98 158.339 1344.91 158.58 1339.47 158.89C1344.85 160.475 1350.19 162.278 1355.49 164.3C1377.47 172.741 1401.18 176.083 1423.99 181.837C1427.43 182.733 1426.12 188.487 1422.64 187.97C1405.78 185.314 1388.78 183.669 1371.72 183.043C1354.49 182.63 1337.51 186.213 1320.31 186.696C1312.22 186.902 1303.98 186.11 1295.89 185.765C1289.65 185.49 1283.34 185.765 1277.11 185.765C1264.36 185.765 1251.61 186.213 1238.86 186.73C1196.93 188.384 1154.66 191.106 1112.97 185.18C1095.26 182.699 1082.47 181.734 1068.17 171.053C1053.12 159.579 1038.37 156.409 1020.8 151.689C1005.25 147.672 990.125 142.168 975.63 135.254C968.084 131.429 963.019 124.917 954.957 121.093C946.894 117.268 940.796 110.308 933.078 106.932C921.605 101.901 906.135 106.208 896.074 112.341C880.397 121.885 884.497 134.392 899.175 144.178C908.684 150.518 918.986 153.481 929.391 157.684C933.767 159.441 938.04 161.336 942.381 163.094H947.411C954.037 163.191 960.643 163.859 967.154 165.092C970.543 165.647 973.883 166.465 977.145 167.538C980.002 168.844 982.754 170.364 985.38 172.087C987.516 172.397 989.721 172.638 992.512 172.81C999.92 173.093 1007.23 174.595 1014.15 177.255C1017.84 178.475 1021.59 179.498 1025.38 180.321C1029.52 181.527 1033.55 183.078 1037.58 184.594C1051.6 189.831 1065.35 195.688 1079.44 200.857C1082.89 202.132 1086.64 203.338 1090.26 204.475L1091.98 205.06H1092.6L1097.6 205.818C1105.04 206.921 1112.55 207.507 1120.03 207.92C1135.26 208.781 1150.38 207.92 1165.58 207.92C1176.47 207.92 1187.56 207.713 1198.41 208.437C1208.13 209.057 1219.09 208.437 1228.04 212.744L1230.15 211.607L1233.18 210.435L1234.38 209.918C1237.31 206.059 1243.38 204.853 1247.75 203.441C1252.13 202.028 1257.16 200.65 1261.91 199.478C1267.6 198.479 1273.38 198.121 1279.14 198.41C1299.8 198.252 1320.43 199.982 1340.78 203.579C1350.12 205.654 1359.56 207.241 1369.07 208.334C1379.4 208.881 1389.76 208.72 1400.08 207.851C1410.86 206.99 1421.58 205.543 1432.29 203.889C1441.77 202.476 1454.55 199.892 1463.58 204.647C1475.88 201.856 1488.73 203.131 1501.48 204.647C1510.23 203.82 1518.98 203.303 1527.77 203.2C1528.39 202.854 1529 202.474 1529.59 202.063C1532.07 200.305 1535.14 199.651 1537.79 198.135C1541.37 196.499 1545.11 195.24 1548.95 194.379C1555.27 192.379 1561.72 190.836 1568.25 189.762C1575.47 188.981 1582.74 188.82 1589.99 189.28C1597.32 189.254 1604.62 190.063 1611.77 191.692C1623.1 194.62 1651.56 205.06 1652.56 219.428C1654.04 241.445 1569.87 224.803 1555.47 223.046C1547.82 222.15 1540.2 221.22 1532.55 220.358C1524.18 219.428 1515.84 219.463 1507.47 218.808C1501.65 218.36 1495.79 218.153 1489.93 217.878C1495.55 219.359 1501.13 221.047 1506.78 222.632C1522.01 226.436 1537.52 229.005 1553.16 230.316C1584.58 233.554 1616.24 233.969 1647.74 231.556C1655.8 230.982 1663.84 230.282 1671.85 229.455L1669.58 229.11C1668.93 229.04 1668.33 228.741 1667.89 228.267C1667.44 227.793 1667.18 227.175 1667.15 226.526C1667.13 225.877 1667.33 225.238 1667.73 224.726C1668.13 224.214 1668.7 223.863 1669.34 223.735C1680.5 222.454 1691.77 222.292 1702.97 223.253C1708.62 223.248 1714.24 222.459 1719.68 220.91C1722.35 220.618 1725.05 220.687 1727.71 221.116C1732.15 220.289 1736.6 219.497 1741.11 218.877C1749.01 218.17 1756.95 218.17 1764.85 218.877C1775.46 219.325 1807.54 233.865 1815.29 223.528C1822.42 214.019 1807.98 209.298 1807.98 202.304C1807.98 194.793 1824.04 198.41 1830.86 198.307C1859.6 197.859 1885.34 189.28 1914.38 188.143C1946.66 186.902 1978.91 184.49 2011.03 181.252C2019.16 180.425 2027.29 179.081 2035.42 178.736C2043.07 178.527 2050.7 177.848 2058.26 176.704C2065.68 175.545 2073.2 175.175 2080.69 175.601C2088.55 175.98 2096.54 174.981 2104.43 174.981C2111.88 174.992 2119.32 175.556 2126.69 176.669C2134.72 177.841 2143.09 177.875 2151.19 178.426C2158.76 178.706 2166.28 179.862 2173.58 181.872C2181.74 184.201 2190.11 185.747 2198.56 186.489C2209.97 187.729 2221.48 188.281 2233.02 188.625C2244.97 188.935 2256.86 189.9 2268.82 189.865C2269.58 189.934 2270.29 190.275 2270.82 190.827C2271.35 191.378 2271.66 192.102 2271.7 192.866C2271.74 193.63 2271.5 194.381 2271.02 194.982C2270.55 195.583 2269.88 195.993 2269.13 196.136L2266.13 196.412C2272.67 196.929 2279.19 197.446 2285.73 198.031C2313.88 200.478 2342.27 204.922 2370.56 204.922C2382.87 204.833 2395.16 203.808 2407.32 201.856C2406.65 200.685 2406.25 199.378 2406.15 198.031L2393.3 196.584C2386.75 195.485 2380.1 195.034 2373.45 195.241C2365.39 195.861 2357.36 195.93 2349.34 196.205C2342.53 196.857 2335.67 196.591 2328.94 195.413C2322.74 194.035 2316.57 192.587 2310.47 190.761C2305.48 189.28 2307.2 182.871 2311.26 181.631C2316.98 179.873 2322.53 177.772 2328.04 175.498C2335.1 173.059 2342.44 171.542 2349.89 170.984C2357.25 169.784 2364.69 169.151 2372.15 169.089C2379.91 169.393 2387.64 170.095 2395.33 171.191C2407.21 173.087 2419.21 174.021 2431.24 173.982C2444.58 173.373 2457.86 171.667 2470.93 168.882C2481.88 166.436 2493.39 165.437 2504.49 163.748C2517.41 161.877 2530.43 160.727 2543.49 160.303C2546.87 160.13 2550.27 160.13 2553.65 160.303C2565.44 159.476 2578.18 156.857 2589.97 157.994C2597.24 158.649 2603.09 162.129 2610.09 163.748C2621.11 166.298 2631.83 163.748 2642.86 163.542C2649.49 164.059 2656.04 165.437 2662.32 167.642H2661.56C2657.36 167.642 2653.05 169.881 2648.99 170.467C2644.03 171.156 2614.53 173.361 2612.85 179.184C2610.67 186.075 2581.32 182.94 2599.06 192.45C2613.19 200.03 2638.96 195.482 2653.88 193.759C2661.5 192.863 2669.11 191.588 2676.66 190.313C2680.65 189.413 2684.7 188.769 2688.78 188.384C2692.85 188.177 2696.88 187.936 2700.91 187.454C2701.81 187.3 2702.73 187.475 2703.5 187.948C2704.28 188.421 2704.86 189.158 2705.13 190.025C2705.4 190.891 2705.35 191.827 2704.99 192.659C2704.63 193.492 2703.97 194.164 2703.15 194.551C2696.93 198.848 2690.02 202.052 2682.72 204.027C2679.65 204.785 2676.59 205.37 2673.52 205.853C2680.05 206.55 2686.44 208.271 2692.44 210.952C2693 211.187 2693.51 211.538 2693.94 211.983C2694.36 212.428 2694.68 212.957 2694.89 213.535C2695.09 214.113 2695.17 214.728 2695.12 215.34C2695.08 215.952 2694.9 216.546 2694.61 217.085C2710.39 212.055 2726.34 207.576 2742.53 203.958C2752.87 201.615 2763.58 199.547 2774.2 197.756L2776.26 197.032C2781.05 195.413 2785.88 193.897 2790.77 192.45C2788.7 191.416 2787.32 188.694 2789.87 187.075C2796.69 183.261 2803.99 180.375 2811.58 178.495C2815 177.37 2818.34 176 2821.57 174.395C2822.71 173.534 2823.85 172.741 2825.02 171.949C2834.96 165.198 2845.73 159.755 2857.06 155.755C2858.96 155.115 2860.89 154.574 2862.85 154.135C2866.29 152.24 2869.74 150.173 2873.18 148.175C2878.15 145.246 2883.52 142.283 2888.86 139.63C2890 138.837 2891.14 138.079 2892.31 137.321C2901.35 131.682 2911.29 127.638 2921.7 125.365C2934.58 122.643 2948.33 116.786 2961.32 112.513C2967.94 110.377 2974.55 108.103 2981.03 105.622C2985.3 103.934 2989.37 101.867 2993.57 100.041C2993.45 98.5117 2992.99 97.0287 2992.23 95.6992C2991.63 94.396 2991.56 92.9084 2992.05 91.5599C2992.54 90.2114 2993.55 89.111 2994.84 88.4981C2999.53 86.4996 3003.91 83.8466 3008.63 81.9171C3013.35 79.9876 3020.38 78.4716 3024.58 75.026C3027.4 72.752 3031.47 68.9963 3031.92 65.7575C3032.3 63.6213 3032.4 61.4851 3032.61 59.3144C3032.92 55.8689 3029.99 52.0443 3028.16 49.3568C3027.72 48.7048 3027.53 47.9096 3027.64 47.1269C3027.75 46.3442 3028.14 45.6307 3028.75 45.126C3029.36 44.6214 3030.14 44.3621 3030.93 44.399C3031.71 44.4359 3032.46 44.7664 3033.02 45.3256C3035.79 47.9746 3038.24 50.9344 3040.32 54.1461C3042.19 57.0059 3045.22 59.9347 3044.91 63.6558C3044.59 66.7379 3043.56 69.7024 3041.88 72.3073C3040.2 74.9122 3037.94 77.0834 3035.26 78.6438C3029.85 82.0893 3023.79 84.6046 3018.03 87.4644C3014.97 88.9805 3011.86 90.4964 3008.8 92.1158C3007.76 92.6326 3006.46 93.2185 3005.35 93.9076C3007.5 97.0818 3008.96 100.675 3009.63 104.451C3011.28 112.031 2995.84 122.299 2990.12 125.882C2985.09 128.949 2979.31 128.914 2974.03 131.257C2968.76 133.6 2964.59 137.838 2959.56 140.732C2951.98 145.143 2938.55 147.933 2933.72 156.478C2951.53 164.748 2971.17 154.859 2988.68 150.931C2998.77 148.657 3009.87 149.139 3019.69 145.797C3028.86 142.507 3038.54 140.896 3048.28 141.042C3063.79 141.215 3062.07 149.691 3047.77 150.483C3033.47 151.276 3024.13 156.203 3011.07 161.268L3009.21 162.026C3006.77 172.362 2995.09 179.736 2987.02 185.524C2976.17 193.311 2964.94 200.581 2953.57 207.575C2943.35 213.795 2932.61 219.099 2921.46 223.425C2911.88 227.146 2902.02 231.384 2891.69 231.763C2887.66 231.935 2886.83 226.491 2889.31 224.252C2896.2 218.084 2904.26 213.433 2911.64 207.92C2921.18 200.788 2930.59 193.518 2940.34 186.696L2943.13 184.697C2938.72 185.111 2934.31 185.283 2929.83 185.283H2925.38C2922.38 185.89 2919.34 186.327 2916.29 186.592C2916.85 187.039 2917.29 187.626 2917.57 188.294C2917.84 188.962 2917.93 189.69 2917.84 190.405C2917.74 191.12 2917.47 191.799 2917.03 192.375C2916.6 192.951 2916.02 193.404 2915.36 193.69C2908.97 196.199 2902.33 197.99 2895.55 199.031L2882.66 200.443C2878.2 202.069 2873.58 203.224 2868.88 203.889C2865.85 204.474 2862.68 205.06 2859.47 205.474C2859.03 206.214 2858.44 206.85 2857.73 207.338C2857.03 207.826 2856.22 208.154 2855.37 208.299C2848.1 209.918 2841.18 212.193 2833.84 213.433C2825.98 214.742 2818.2 215.5 2810.31 216.396C2795.42 218.153 2780.67 220.737 2766.07 223.907L2764.83 224.183C2761.72 225.182 2758.62 226.112 2755.49 227.008C2753.24 227.647 2750.93 227.994 2748.6 228.042C2726.3 233.796 2704.32 241.169 2682.79 248.922C2654.95 258.948 2627.35 269.595 2599.89 280.586C2585.84 286.221 2571.25 290.389 2556.34 293.025C2541.46 296.074 2526.84 300.291 2512.62 305.635C2507.47 307.45 2502.32 309.219 2497.15 310.941C2494.77 311.734 2493.05 308.323 2495.46 307.496C2509.55 302.199 2523.29 296.019 2536.6 288.993C2549.72 281.689 2561.61 272.248 2575.08 265.529C2579.98 263.117 2606.82 253.883 2591.52 245.511C2587.73 243.443 2574.6 244.96 2569.67 244.339C2564.75 243.719 2564.23 236.415 2569.26 235.794C2595.88 231.999 2622.7 229.698 2649.57 228.903C2654.29 227.939 2659.01 226.836 2663.77 225.458C2668.52 224.08 2674.11 223.046 2679.45 222.012L2684.48 220.289C2672.19 221.243 2659.84 221.127 2647.58 219.945C2632.75 219.41 2617.92 219.721 2603.13 220.875C2573.62 222.616 2544.21 225.847 2515.03 230.557C2500.42 233.004 2485.78 235.243 2471.34 238.516C2456.9 241.79 2442.33 244.649 2427.62 246.51C2412.91 248.37 2398.09 249.783 2383.27 250.817C2368.46 251.85 2353.57 250.817 2339 250.507C2333.42 250.334 2334.35 242.203 2339.69 242.031C2354.92 241.514 2369.7 239.274 2384.82 237.896C2399.95 236.518 2414.32 234.657 2429 232.521C2443.67 230.385 2458.49 229.076 2473.27 227.525C2488.05 225.975 2502.56 223.149 2517.17 220.841C2546.31 216.293 2575.22 210.504 2604.65 207.817L2608.64 207.472C2600.75 207.162 2592.76 207.472 2584.87 207.472C2576.22 207.472 2567.64 206.301 2558.92 205.715C2550.21 205.129 2541.9 204.475 2533.39 203.372C2531.29 203.096 2529.22 202.717 2527.16 202.235C2518.23 206.886 2506.48 207.817 2497.39 209.85C2484.12 212.778 2470.86 215.672 2457.59 218.429C2429.66 224.315 2401.21 227.431 2372.66 227.732C2345.58 227.939 2318.36 223.528 2291.52 220.083C2291.25 220.438 2290.89 220.716 2290.48 220.887C2290.07 221.058 2289.62 221.117 2289.18 221.057C2288.74 220.998 2288.32 220.822 2287.97 220.548C2287.62 220.273 2287.35 219.911 2287.18 219.497C2269.05 217.76 2251.18 213.909 2233.95 208.023C2224.66 204.38 2214.42 203.968 2204.87 206.852C2199.15 208.885 2194.53 212.124 2188.16 213.433C2178.68 215.328 2157.7 218.911 2149.81 210.987C2154.01 196.653 2180.54 205.612 2187.19 195.964C2177.27 194.896 2167.83 196.619 2158.01 194.793C2147.98 192.746 2137.83 191.388 2127.62 190.727C2120.25 190.348 2112.53 191.416 2105.12 191.554C2097.26 191.307 2089.39 192.001 2081.69 193.621C2071.98 196.274 2062.29 198.962 2052.54 201.511C2064.64 202.269 2076.66 202.855 2088.82 203.2C2092.58 203.2 2091.96 208.816 2088.34 208.919C2064.99 209.853 2041.75 212.676 2018.85 217.361C2000.86 220.806 1982.6 222.701 1964.55 225.768C1957.66 226.905 1939.26 224.872 1936.64 232.935C1956.38 235.243 1976.43 240.549 1996.14 243.788C1998.73 244.236 2001.38 244.718 2004.03 245.27C2004.62 245.095 2005.24 245.095 2005.82 245.27C2010.88 246.992 2016.29 247.465 2021.57 246.648L2028.46 245.27C2031.35 244.684 2034.21 243.237 2037.07 242.789C2047.41 241.169 2057.75 239.86 2068.08 238.103C2072.98 237.276 2077.87 236.311 2082.73 235.346C2088.45 234.736 2094.23 234.736 2099.95 235.346C2104.67 235.346 2109.22 236.104 2113.98 235.967C2119.94 235.44 2125.86 234.484 2131.69 233.107C2153.77 229.423 2176.14 227.625 2198.53 227.732C2209.38 227.415 2220.24 227.772 2231.05 228.8C2242.32 230.213 2253.59 231.625 2264.89 232.831C2267.89 233.141 2268.33 237.896 2265.16 238.206C2254.62 239.309 2244.08 240.17 2233.53 241.032C2222.16 241.962 2210.79 241.342 2199.36 241.273C2176.01 240.698 2152.66 241.504 2129.41 243.685C2124.38 243.957 2119.38 244.649 2114.46 245.752C2109.31 247.52 2104.3 249.674 2099.47 252.195C2088.94 256.486 2077.91 259.426 2066.64 260.947C2058.36 262.736 2049.87 263.408 2041.42 262.945C2041.18 263.3 2040.86 263.596 2040.49 263.811C2040.12 264.026 2039.71 264.154 2039.28 264.185C2032.39 264.702 2026.19 266.804 2019.4 267.08C2011.7 267.333 2003.98 266.93 1996.35 265.874C1980.81 263.875 1965.34 260.533 1949.87 258.569C1930.16 255.456 1910.25 253.809 1890.3 253.642C1903.71 258.261 1917.56 261.449 1931.64 263.152C1932.1 263.188 1932.52 263.405 1932.82 263.754C1933.12 264.103 1933.26 264.556 1933.23 265.012C1933.19 265.469 1932.97 265.893 1932.63 266.19C1932.28 266.487 1931.82 266.634 1931.37 266.597C1924.48 266.149 1917.38 265.426 1910.42 264.53C1903.46 263.634 1895.67 263.531 1888.3 262.601C1881.61 261.739 1874.86 261.739 1868.14 260.912L1854.36 259.121C1854.01 259.211 1853.64 259.211 1853.29 259.121L1846.4 258.225C1832.41 256.399 1818.84 252.953 1804.78 250.472C1779.56 245.993 1748.41 242.203 1723.67 249.783C1704.69 255.572 1678.88 247.13 1664.27 263.324C1657.04 271.352 1659.45 274.35 1647.39 268.424C1636.16 262.876 1621.17 253.952 1608.18 253.987C1596.33 253.987 1584.48 253.814 1572.69 253.194C1558.36 252.482 1544.11 251.07 1529.94 248.956C1526.49 249.611 1523.25 250.369 1519.84 250.782C1519.34 250.85 1518.84 250.781 1518.37 250.584C1517.91 250.387 1517.51 250.069 1517.21 249.663C1516.92 249.257 1516.74 248.779 1516.69 248.278C1516.64 247.778 1516.73 247.274 1516.95 246.82L1513.78 246.269C1501.51 243.995 1489.21 243.03 1478.39 236.552C1471.5 232.383 1463.78 225.802 1454.65 229.455C1437.43 236.346 1468.78 241.721 1474.64 244.443C1479.12 246.544 1476.6 253.746 1471.98 251.747C1442.01 238.93 1409.62 239.929 1377.78 242.41C1370.25 242.955 1362.83 244.591 1355.77 247.268C1351.99 248.52 1348.13 249.533 1344.23 250.3C1339.97 251.69 1335.65 252.84 1331.27 253.746C1314.04 256.123 1296.06 255.709 1278.52 256.536C1245.17 258.121 1211.61 258.466 1178.19 258.914C1170.02 258.914 1161.89 259.086 1153.73 259.086C1132.74 259.086 1111.86 253.298 1090.71 252.195C1069.52 250.759 1048.23 252.267 1027.45 256.674C1012.63 260.12 1000.75 256.674 986.104 255.365C974.217 254.228 964.57 257.053 953.51 260.533C944.035 263.531 891.491 272.696 898.175 253.815C903.206 240.032 917.229 241.79 929.012 242.272V242.272ZM971.495 58.0396C965.569 59.0733 958.919 54.5941 953.2 52.9747C949.461 52.2961 945.663 51.996 941.864 52.0788C937.962 51.5425 933.99 52.2287 930.494 54.0428C927.393 55.8 924.154 50.5972 927.048 48.7366C934.347 43.0658 943.561 40.4473 952.752 41.4321C960.228 42.2591 974.217 45.8424 973.666 55.5588C973.619 56.151 973.383 56.7124 972.992 57.1594C972.601 57.6064 972.076 57.9152 971.495 58.0396V58.0396ZM916.436 53.3881C905.721 53.3881 893.972 52.7679 884.015 57.3849C883.498 57.6271 882.907 57.6542 882.371 57.4603C881.834 57.2665 881.397 56.8675 881.155 56.3512C880.913 55.8349 880.886 55.2436 881.079 54.7073C881.273 54.171 881.672 53.7336 882.188 53.4915C892.835 48.5644 905.308 49.1157 916.643 49.1157C919.537 49.0123 919.158 53.3881 916.436 53.3881V53.3881Z" fill="white"/>
<path d="M770.21 158.167C772.622 158.167 772.278 161.853 769.935 161.853C767.592 161.853 767.833 158.167 770.21 158.167ZM3098.55 21.7238C3097.2 21.9552 3095.8 21.644 3094.68 20.8575C3093.55 20.071 3092.78 18.8723 3092.52 17.5203C3092.28 14.316 3091.66 12.042 3089.42 11.215C3086.57 10.1427 3083.6 9.44772 3080.57 9.1477C3076.19 8.56196 3075.47 1.73979 3080.19 1.15405C3084.83 0.0232174 3089.7 0.214183 3094.25 1.70535C3096.82 3.0096 3098.98 5.00755 3100.47 7.47341C3101.97 9.93927 3102.75 12.7747 3102.72 15.6597C3102.94 17.0123 3102.62 18.3958 3101.85 19.5244C3101.07 20.653 3099.89 21.4404 3098.55 21.7238V21.7238ZM3139.8 156.272C3151.75 157.719 3163.16 156.272 3171.46 146.865C3179.76 137.459 3181.8 125.055 3183.55 113.788C3184 111.308 3187.86 111.549 3187.55 114.133C3186 127.191 3183.69 141.456 3175.66 152.309C3167.63 163.163 3152.1 165.161 3139.21 163.748C3134.42 163.232 3135.04 155.72 3139.8 156.272V156.272ZM2954.95 221.909C2951.29 221.599 2950.81 215.776 2954.6 215.362C2963.32 214.432 2972.07 213.157 2980.65 211.538C2990.06 209.746 2999.67 208.988 3009.07 207.3C3013.04 206.576 3013.76 212.089 3010.18 213.226C2992.23 218.946 2974.17 223.666 2954.95 221.909ZM782.821 195.103C803.011 194.862 824.166 203.165 842.117 212.02C845.046 213.467 843.358 218.326 840.36 216.879C822.513 208.092 802.46 201.064 782.407 200.271C779.065 200.133 779.582 195.172 782.821 195.103V195.103Z" fill="white"/>
</svg>
